<svg width="264" height="490" viewBox="0 0 264 490" fill="none" xmlns="http://www.w3.org/2000/svg">
<path d="M258.686 482.814L256.314 485.186C250.065 491.435 239.935 491.435 233.686 485.186L4.81372 256.314C-1.43469 250.065 -1.43466 239.935 4.81372 233.686L233.686 4.81371C239.935 -1.43468 250.065 -1.43468 256.314 4.81371L258.686 7.18629C264.935 13.4347 264.935 23.5653 258.686 29.8137L61.17 227.33L54.8137 233.686C48.5653 239.935 48.5653 250.065 54.8137 256.314L61.17 262.67L258.686 460.186C264.935 466.435 264.935 476.565 258.686 482.814Z" fill="url(#paint0_linear_259_2732)"/>
<defs>
<linearGradient id="paint0_linear_259_2732" x1="-6.50009" y1="245" x2="614.5" y2="245" gradientUnits="userSpaceOnUse">
<stop stop-color="#D9D9D9"/>
<stop offset="1" stop-color="#D9D9D9" stop-opacity="0"/>
</linearGradient>
</defs>
</svg>
