<svg width="158" height="279" viewBox="0 0 158 279" fill="none" xmlns="http://www.w3.org/2000/svg">
<path d="M153.186 271.314L150.814 273.686C144.565 279.935 134.435 279.935 128.186 273.686L5.31369 150.814C-0.934692 144.565 -0.934692 134.435 5.31369 128.186L128.186 5.31371C134.435 -0.93468 144.565 -0.934681 150.814 5.31371L153.186 7.68629C159.435 13.9347 159.435 24.0653 153.186 30.3137L61.67 121.83L55.3137 128.186C49.0653 134.435 49.0653 144.565 55.3137 150.814L61.67 157.17L153.186 248.686C159.435 254.935 159.435 265.065 153.186 271.314Z" fill="url(#paint0_linear_449_2845)"/>
<defs>
<linearGradient id="paint0_linear_449_2845" x1="-6.00009" y1="139.5" x2="271" y2="139.5" gradientUnits="userSpaceOnUse">
<stop stop-color="white"/>
<stop offset="1" stop-color="white" stop-opacity="0"/>
</linearGradient>
</defs>
</svg>
