<svg width="264" height="490" viewBox="0 0 264 490" fill="none" xmlns="http://www.w3.org/2000/svg">
<path d="M4.81371 482.814L7.18629 485.186C13.4347 491.435 23.5653 491.435 29.8137 485.186L258.686 256.314C264.935 250.065 264.935 239.935 258.686 233.686L29.8137 4.81371C23.5653 -1.43468 13.4347 -1.43468 7.18629 4.81371L4.81371 7.18629C-1.43468 13.4347 -1.43467 23.5653 4.81372 29.8137L202.33 227.33L208.686 233.686C214.935 239.935 214.935 250.065 208.686 256.314L202.33 262.67L4.81371 460.186C-1.43468 466.435 -1.43468 476.565 4.81371 482.814Z" fill="url(#paint0_linear_259_2732)"/>
<defs>
<linearGradient id="paint0_linear_259_2732" x1="270" y1="245" x2="-351" y2="245" gradientUnits="userSpaceOnUse">
<stop stop-color="#D9D9D9"/>
<stop offset="1" stop-color="#D9D9D9" stop-opacity="0"/>
</linearGradient>
</defs>
</svg>
