<svg width="694" height="707" viewBox="0 0 694 707" fill="none" xmlns="http://www.w3.org/2000/svg">
<g clip-path="url(#clip0_105_572)">
<path d="M371.29 0.620041C368.54 0.430041 365.78 0.28004 363.01 0.15004L360.93 0.0600439L358.78 -0.0199579C352.193 -0.253291 345.563 -0.296614 338.89 -0.149948C154.15 4.00005 3.99998 157 -0.110017 345.3C-4.47002 546.5 157 711.11 354.46 706.67C539.19 702.52 689.37 549.46 693.46 361.2C697.56 171.13 553.66 13.72 371.29 0.620041ZM416.8 481.67C416.795 480.547 417.011 479.433 417.437 478.393C417.862 477.353 418.489 476.408 419.28 475.61L450.28 444.3C451.937 442.62 454.181 441.649 456.54 441.59H536.4C536.62 441.608 536.84 441.608 537.06 441.59H584.06C556.24 518.12 493.96 577.14 417.16 599.78V598L416.9 598.07L416.8 481.67ZM291.26 600.32C209.05 581.02 142.26 520.67 112.72 441.59H258.64C259.938 441.61 261.217 441.913 262.386 442.478C263.555 443.043 264.587 443.856 265.41 444.86L290.25 475.24C291.549 476.855 292.255 478.867 292.25 480.94L291.26 600.32ZM272.79 105.53C273.96 105.16 275.13 104.81 276.3 104.46L277.69 104.04C300.095 97.4317 323.331 94.0642 346.69 94.04C465.54 94.04 566.84 176.28 593.31 294.15L545.8 294.66H532.57C522.719 294.652 513.017 292.25 504.3 287.66C494.001 282.136 484.068 275.956 474.56 269.16C461.86 260.41 448.72 251.35 423.71 239.95C417.27 237.105 410.612 234.781 403.8 233C390.474 229.326 376.713 227.469 362.89 227.48C331.998 227.585 301.776 236.496 275.77 253.17L203.34 292.53C199.792 294.008 195.984 294.763 192.14 294.75H102.28C121.8 204.84 187.54 132.7 272.79 105.53ZM417.15 685.39V613.77C418.027 613.703 418.895 613.545 419.74 613.3C501.49 589.62 567.74 526.86 597.02 445.41C597.764 443.419 598.009 441.277 597.734 439.169C597.458 437.062 596.67 435.055 595.438 433.323C594.206 431.591 592.569 430.187 590.669 429.235C588.769 428.282 586.665 427.81 584.54 427.86H456.41C450.526 427.96 444.917 430.366 440.79 434.56L409.79 465.86C405.651 470.087 403.329 475.764 403.32 481.68L403.41 600.68C403.41 600.94 403.41 601.2 403.41 601.47C385.56 605.37 367.23 606.9 347.94 606.9C333.427 606.9 318.942 605.632 304.65 603.11L305.76 481C305.765 475.699 303.938 470.559 300.59 466.45L275.76 436.08C273.698 433.552 271.108 431.507 268.171 430.087C265.234 428.667 262.022 427.907 258.76 427.86H109C108.67 427.86 108.34 427.86 108 427.86C96.0537 389.214 93.1995 348.331 99.66 308.4H192.11C197.712 308.416 203.261 307.311 208.43 305.15C229.78 296.21 254.84 282.61 282.89 264.73C318.36 242.11 361.14 235.34 400.24 246.17C406.381 247.806 412.38 249.932 418.18 252.53C442.12 263.45 454.76 272.15 466.99 280.58C476.93 287.672 487.311 294.125 498.07 299.9C508.701 305.485 520.531 308.403 532.54 308.4H537.81L594.17 307.88C596.106 307.857 598.013 307.396 599.745 306.53C601.477 305.664 602.99 304.416 604.17 302.88C605.359 301.361 606.198 299.598 606.629 297.718C607.059 295.837 607.07 293.885 606.66 292C593.491 232.735 560.981 179.535 514.25 140.78C473.703 107.334 424.102 86.7403 371.79 81.6301L415.12 57C415.657 56.5457 415.992 55.897 416.052 55.1961C416.112 54.4952 415.892 53.7991 415.44 53.26L383.85 15.5701C547.53 34.2401 676.28 174.84 679.98 345.57C683.58 511.69 569.6 651.83 417.15 685.39Z" fill="black"/>
<path d="M357.34 415.95C386.39 415.95 409.94 391.952 409.94 362.35C409.94 332.748 386.39 308.75 357.34 308.75C328.29 308.75 304.74 332.748 304.74 362.35C304.74 391.952 328.29 415.95 357.34 415.95Z" fill="black"/>
</g>
<defs>
<clipPath id="clip0_105_572">
<rect width="694" height="707" fill="white"/>
</clipPath>
</defs>
</svg>
