<svg width="814" height="168" viewBox="0 0 814 168" fill="none" xmlns="http://www.w3.org/2000/svg">
<path d="M21.298 123V98.28H37.018C56.578 98.28 71.218 89.64 71.218 70.44C71.218 51.84 57.178 42.84 36.778 42.84H13.618V123H21.298ZM36.898 50.04C52.378 50.04 63.298 56.28 63.298 70.44C63.298 85.2 51.658 91.08 36.898 91.08H21.298V50.04H36.898ZM110.455 124.2C121.495 124.2 130.495 118.2 134.935 109.44V123H142.015V93.72C142.015 76.68 128.575 63.48 111.415 63.48C94.0152 63.48 80.9352 77.16 80.9352 93.72C80.9352 110.52 93.6552 124.2 110.455 124.2ZM111.415 117.12C98.5752 117.12 88.3752 106.56 88.3752 93.84C88.3752 81.12 98.5752 70.56 111.415 70.56C124.375 70.56 134.575 81.12 134.575 93.84C134.575 106.56 124.375 117.12 111.415 117.12ZM184.71 124.32C189.03 124.32 193.35 122.88 196.35 120.6V113.4C193.47 115.8 189.51 117.36 185.31 117.36C177.63 117.36 172.59 112.32 172.59 103.68V71.52H196.35V64.8H172.59V49.32H165.15V64.8H152.79V71.52H165.15V103.92C165.15 116.28 172.35 124.32 184.71 124.32ZM221.716 123V87.48C221.716 77.52 227.236 71.16 236.116 71.16C239.476 71.16 242.716 72 245.596 73.68V66.12C242.596 64.68 239.116 63.96 235.516 63.96C222.076 63.96 214.276 73.56 214.276 87.12V123H221.716ZM259.888 50.76C262.888 50.76 265.168 48.36 265.168 45.24C265.168 42.12 262.888 39.72 259.888 39.72C256.888 39.72 254.488 42.12 254.488 45.24C254.488 48.36 256.888 50.76 259.888 50.76ZM256.168 64.8V123H263.608V64.8H256.168ZM310.614 124.2C320.934 124.2 330.294 119.64 335.694 109.8L329.454 106.32C325.254 113.64 318.414 117.12 310.614 117.12C298.614 117.12 288.414 106.56 288.414 93.84C288.414 81.12 298.614 70.56 310.614 70.56C318.414 70.56 325.254 74.04 329.454 81.48L335.694 77.88C330.294 68.04 320.934 63.48 310.614 63.48C294.534 63.48 280.974 77.04 280.974 93.84C280.974 110.64 294.534 124.32 310.614 124.2ZM359.35 123V96.96H367.87C368.47 98.76 369.43 100.56 370.99 102.12L391.75 123H401.47L376.15 97.44C374.95 96.24 374.23 95.04 374.23 93.84C374.23 92.52 374.95 91.44 376.15 90.24L401.59 64.8H392.23L371.23 85.8C369.79 87.24 368.71 88.8 368.11 90.36H359.35V37.92H351.91V123H359.35ZM485.585 124.32C499.025 124.32 510.905 117.6 517.265 106.56L511.025 102.84C505.625 111.72 496.025 117 485.345 117C467.705 117 453.425 102 453.425 82.8C453.425 63.84 467.825 48.84 485.345 48.84C496.025 48.84 505.625 54.24 511.025 63.12L517.265 59.4C510.905 48.36 499.025 41.52 485.585 41.52C463.625 41.52 445.505 59.88 445.505 82.8C445.505 105.96 463.625 124.32 485.585 124.32ZM532.965 38.04V123H540.405V38.04H532.965ZM587.771 124.2C598.451 124.2 607.571 119.4 612.851 109.8L607.091 106.68C602.891 114.12 595.691 117.12 587.771 117.12C575.411 117.12 566.291 108.36 565.091 96.48H614.411V92.04C614.411 75.48 603.371 63.36 586.451 63.36C569.411 63.36 557.771 76.92 557.771 93.72C557.771 111.12 570.611 124.2 587.771 124.2ZM565.331 90.48C566.411 79.2 574.331 70.44 586.451 70.44C598.211 70.44 606.731 78.36 606.971 90.48H565.331ZM655.494 124.2C666.534 124.2 675.534 118.2 679.974 109.44V123H687.054V93.72C687.054 76.68 673.614 63.48 656.454 63.48C639.054 63.48 625.974 77.16 625.974 93.72C625.974 110.52 638.694 124.2 655.494 124.2ZM656.454 117.12C643.614 117.12 633.414 106.56 633.414 93.84C633.414 81.12 643.614 70.56 656.454 70.56C669.414 70.56 679.614 81.12 679.614 93.84C679.614 106.56 669.414 117.12 656.454 117.12ZM713.669 123V87.48C713.669 77.52 719.189 71.16 728.069 71.16C731.429 71.16 734.669 72 737.549 73.68V66.12C734.549 64.68 731.069 63.96 727.469 63.96C714.029 63.96 706.229 73.56 706.229 87.12V123H713.669ZM774.088 151.08C792.808 151.08 802.768 137.64 802.768 118.8V64.8H795.328V93.6C795.328 106.44 787.768 116.88 775.168 116.88C762.568 116.88 755.968 108 755.968 94.92V64.8H748.528V95.64C748.528 112.44 757.408 123.96 774.448 123.96C784.648 123.96 791.728 118.68 795.328 110.64V118.8C795.448 132.96 788.368 144 773.968 144C765.688 144 757.888 140.52 753.808 133.2L747.568 136.68C752.848 146.4 763.048 151.08 774.088 151.08Z"/>
<path d="M21.298 123V124H22.298V123H21.298ZM21.298 98.28V97.28H20.298V98.28H21.298ZM13.618 42.84V41.84H12.618V42.84H13.618ZM13.618 123H12.618V124H13.618V123ZM21.298 91.08H20.298V92.08H21.298V91.08ZM21.298 50.04V49.04H20.298V50.04H21.298ZM22.298 123V98.28H20.298V123H22.298ZM21.298 99.28H37.018V97.28H21.298V99.28ZM37.018 99.28C46.9255 99.28 55.7142 97.0946 62.0514 92.3612C68.431 87.5961 72.218 80.3271 72.218 70.44H70.218C70.218 79.7529 66.6849 86.4039 60.8545 90.7588C54.9817 95.1454 46.6705 97.28 37.018 97.28V99.28ZM72.218 70.44C72.218 60.8576 68.5847 53.6489 62.2505 48.8669C55.9569 44.1156 47.1058 41.84 36.778 41.84V43.84C46.8501 43.84 55.219 46.0644 61.0454 50.4631C66.8312 54.831 70.218 61.4224 70.218 70.44H72.218ZM36.778 41.84H13.618V43.84H36.778V41.84ZM12.618 42.84V123H14.618V42.84H12.618ZM13.618 124H21.298V122H13.618V124ZM36.898 51.04C44.5268 51.04 50.8914 52.5812 55.322 55.7439C59.7015 58.8701 62.298 63.6544 62.298 70.44H64.298C64.298 63.0656 61.4344 57.6498 56.484 54.1161C51.5845 50.6187 44.7491 49.04 36.898 49.04V51.04ZM62.298 70.44C62.298 77.5155 59.5299 82.3592 55.0611 85.4747C50.5382 88.6278 44.1692 90.08 36.898 90.08V92.08C44.3868 92.08 51.2177 90.5922 56.2049 87.1153C61.2461 83.6008 64.298 78.1244 64.298 70.44H62.298ZM36.898 90.08H21.298V92.08H36.898V90.08ZM22.298 91.08V50.04H20.298V91.08H22.298ZM21.298 51.04H36.898V49.04H21.298V51.04ZM134.935 109.44H135.935L134.043 108.988L134.935 109.44ZM134.935 123H133.935V124H134.935V123ZM142.015 123V124H143.015V123H142.015ZM110.455 125.2C121.879 125.2 131.22 118.982 135.827 109.892L134.043 108.988C129.771 117.418 121.112 123.2 110.455 123.2V125.2ZM133.935 109.44V123H135.935V109.44H133.935ZM134.935 124H142.015V122H134.935V124ZM143.015 123V93.72H141.015V123H143.015ZM143.015 93.72C143.015 76.1148 129.114 62.48 111.415 62.48V64.48C128.036 64.48 141.015 77.2452 141.015 93.72H143.015ZM111.415 62.48C93.4551 62.48 79.9352 76.6155 79.9352 93.72H81.9352C81.9352 77.7045 94.5752 64.48 111.415 64.48V62.48ZM79.9352 93.72C79.9352 111.03 93.0614 125.2 110.455 125.2V123.2C94.2489 123.2 81.9352 110.01 81.9352 93.72H79.9352ZM111.415 116.12C99.1442 116.12 89.3752 106.025 89.3752 93.84H87.3752C87.3752 107.095 98.0061 118.12 111.415 118.12V116.12ZM89.3752 93.84C89.3752 81.6553 99.1442 71.56 111.415 71.56V69.56C98.0061 69.56 87.3752 80.5847 87.3752 93.84H89.3752ZM111.415 71.56C123.809 71.56 133.575 81.6588 133.575 93.84H135.575C135.575 80.5812 124.941 69.56 111.415 69.56V71.56ZM133.575 93.84C133.575 106.021 123.809 116.12 111.415 116.12V118.12C124.941 118.12 135.575 107.099 135.575 93.84H133.575ZM196.35 120.6L196.955 121.396L197.35 121.096V120.6H196.35ZM196.35 113.4H197.35V111.265L195.71 112.632L196.35 113.4ZM172.59 71.52V70.52H171.59V71.52H172.59ZM196.35 71.52V72.52H197.35V71.52H196.35ZM196.35 64.8H197.35V63.8H196.35V64.8ZM172.59 64.8H171.59V65.8H172.59V64.8ZM172.59 49.32H173.59V48.32H172.59V49.32ZM165.15 49.32V48.32H164.15V49.32H165.15ZM165.15 64.8V65.8H166.15V64.8H165.15ZM152.79 64.8V63.8H151.79V64.8H152.79ZM152.79 71.52H151.79V72.52H152.79V71.52ZM165.15 71.52H166.15V70.52H165.15V71.52ZM184.71 125.32C189.231 125.32 193.767 123.819 196.955 121.396L195.745 119.804C192.932 121.941 188.829 123.32 184.71 123.32V125.32ZM197.35 120.6V113.4H195.35V120.6H197.35ZM195.71 112.632C193.004 114.887 189.269 116.36 185.31 116.36V118.36C189.751 118.36 193.936 116.713 196.99 114.168L195.71 112.632ZM185.31 116.36C181.695 116.36 178.795 115.179 176.795 113.072C174.791 110.959 173.59 107.807 173.59 103.68H171.59C171.59 108.193 172.909 111.881 175.344 114.448C177.785 117.021 181.245 118.36 185.31 118.36V116.36ZM173.59 103.68V71.52H171.59V103.68H173.59ZM172.59 72.52H196.35V70.52H172.59V72.52ZM197.35 71.52V64.8H195.35V71.52H197.35ZM196.35 63.8H172.59V65.8H196.35V63.8ZM173.59 64.8V49.32H171.59V64.8H173.59ZM172.59 48.32H165.15V50.32H172.59V48.32ZM164.15 49.32V64.8H166.15V49.32H164.15ZM165.15 63.8H152.79V65.8H165.15V63.8ZM151.79 64.8V71.52H153.79V64.8H151.79ZM152.79 72.52H165.15V70.52H152.79V72.52ZM164.15 71.52V103.92H166.15V71.52H164.15ZM164.15 103.92C164.15 110.291 166.008 115.658 169.567 119.44C173.133 123.231 178.305 125.32 184.71 125.32V123.32C178.754 123.32 174.147 121.389 171.023 118.07C167.892 114.742 166.15 109.909 166.15 103.92H164.15ZM221.716 123V124H222.716V123H221.716ZM245.596 73.68L245.092 74.5438L246.596 75.421V73.68H245.596ZM245.596 66.12H246.596V65.4908L246.029 65.2185L245.596 66.12ZM214.276 123H213.276V124H214.276V123ZM222.716 123V87.48H220.716V123H222.716ZM222.716 87.48C222.716 82.6784 224.045 78.8542 226.337 76.2449C228.616 73.6503 231.93 72.16 236.116 72.16V70.16C231.422 70.16 227.536 71.8497 224.834 74.9251C222.146 77.9858 220.716 82.3216 220.716 87.48H222.716ZM236.116 72.16C239.307 72.16 242.372 72.957 245.092 74.5438L246.1 72.8162C243.06 71.043 239.645 70.16 236.116 70.16V72.16ZM246.596 73.68V66.12H244.596V73.68H246.596ZM246.029 65.2185C242.876 63.7054 239.245 62.96 235.516 62.96V64.96C238.986 64.96 242.315 65.6546 245.163 67.0215L246.029 65.2185ZM235.516 62.96C228.542 62.96 222.948 65.4595 219.107 69.7917C215.28 74.1091 213.276 80.1541 213.276 87.12H215.276C215.276 80.5258 217.171 74.9909 220.604 71.1183C224.024 67.2605 229.05 64.96 235.516 64.96V62.96ZM213.276 87.12V123H215.276V87.12H213.276ZM214.276 124H221.716V122H214.276V124ZM256.168 64.8V63.8H255.168V64.8H256.168ZM256.168 123H255.168V124H256.168V123ZM263.608 123V124H264.608V123H263.608ZM263.608 64.8H264.608V63.8H263.608V64.8ZM259.888 51.76C263.484 51.76 266.168 48.8679 266.168 45.24H264.168C264.168 47.8521 262.292 49.76 259.888 49.76V51.76ZM266.168 45.24C266.168 41.6121 263.484 38.72 259.888 38.72V40.72C262.292 40.72 264.168 42.6279 264.168 45.24H266.168ZM259.888 38.72C256.321 38.72 253.488 41.5822 253.488 45.24H255.488C255.488 42.6578 257.455 40.72 259.888 40.72V38.72ZM253.488 45.24C253.488 48.8978 256.321 51.76 259.888 51.76V49.76C257.455 49.76 255.488 47.8222 255.488 45.24H253.488ZM255.168 64.8V123H257.168V64.8H255.168ZM256.168 124H263.608V122H256.168V124ZM264.608 123V64.8H262.608V123H264.608ZM263.608 63.8H256.168V65.8H263.608V63.8ZM310.614 124.2V123.2L310.607 123.2L310.614 124.2ZM335.694 109.8L336.571 110.281L337.049 109.41L336.181 108.927L335.694 109.8ZM329.454 106.32L329.941 105.447L329.079 104.965L328.587 105.822L329.454 106.32ZM329.454 81.48L328.583 81.9716L329.08 82.8506L329.954 82.3462L329.454 81.48ZM335.694 77.88L336.194 78.7462L337.042 78.257L336.571 77.3989L335.694 77.88ZM310.614 125.2C321.25 125.2 330.973 120.482 336.571 110.281L334.818 109.319C329.616 118.798 320.619 123.2 310.614 123.2V125.2ZM336.181 108.927L329.941 105.447L328.967 107.193L335.207 110.673L336.181 108.927ZM328.587 105.822C324.578 112.809 318.083 116.12 310.614 116.12V118.12C318.745 118.12 325.93 114.471 330.322 106.818L328.587 105.822ZM310.614 116.12C299.207 116.12 289.414 106.049 289.414 93.84H287.414C287.414 107.071 298.021 118.12 310.614 118.12V116.12ZM289.414 93.84C289.414 81.6309 299.207 71.56 310.614 71.56V69.56C298.021 69.56 287.414 80.6091 287.414 93.84H289.414ZM310.614 71.56C318.081 71.56 324.574 74.8687 328.583 81.9716L330.325 80.9884C325.935 73.2113 318.748 69.56 310.614 69.56V71.56ZM329.954 82.3462L336.194 78.7462L335.195 77.0138L328.955 80.6138L329.954 82.3462ZM336.571 77.3989C330.973 67.1976 321.25 62.48 310.614 62.48V64.48C320.619 64.48 329.616 68.8824 334.818 78.3611L336.571 77.3989ZM310.614 62.48C293.966 62.48 279.974 76.5034 279.974 93.84H281.974C281.974 77.5766 295.102 64.48 310.614 64.48V62.48ZM279.974 93.84C279.974 111.17 293.961 125.324 310.622 125.2L310.607 123.2C295.107 123.316 281.974 110.11 281.974 93.84H279.974ZM359.35 123V124H360.35V123H359.35ZM359.35 96.96V95.96H358.35V96.96H359.35ZM367.87 96.96L368.819 96.6438L368.591 95.96H367.87V96.96ZM370.99 102.12L371.699 101.415L371.697 101.413L370.99 102.12ZM391.75 123L391.041 123.705L391.334 124H391.75V123ZM401.47 123V124H403.868L402.181 122.296L401.47 123ZM376.15 97.44L376.861 96.7362L376.857 96.7329L376.15 97.44ZM376.15 90.24L376.857 90.9471L376.857 90.9471L376.15 90.24ZM401.59 64.8L402.297 65.5071L404.004 63.8H401.59V64.8ZM392.23 64.8V63.8H391.816L391.523 64.0929L392.23 64.8ZM368.11 90.36V91.36H368.797L369.044 90.719L368.11 90.36ZM359.35 90.36H358.35V91.36H359.35V90.36ZM359.35 37.92H360.35V36.92H359.35V37.92ZM351.91 37.92V36.92H350.91V37.92H351.91ZM351.91 123H350.91V124H351.91V123ZM360.35 123V96.96H358.35V123H360.35ZM359.35 97.96H367.87V95.96H359.35V97.96ZM366.921 97.2762C367.56 99.1916 368.592 101.136 370.283 102.827L371.697 101.413C370.269 99.9842 369.38 98.3284 368.819 96.6438L366.921 97.2762ZM370.281 102.825L391.041 123.705L392.459 122.295L371.699 101.415L370.281 102.825ZM391.75 124H401.47V122H391.75V124ZM402.181 122.296L376.861 96.7362L375.44 98.1438L400.76 123.704L402.181 122.296ZM376.857 96.7329C375.718 95.5933 375.23 94.6373 375.23 93.84H373.23C373.23 95.4427 374.183 96.8867 375.443 98.1471L376.857 96.7329ZM375.23 93.84C375.23 92.9338 375.704 92.1006 376.857 90.9471L375.443 89.5329C374.197 90.7794 373.23 92.1062 373.23 93.84H375.23ZM376.857 90.9471L402.297 65.5071L400.883 64.0929L375.443 89.5329L376.857 90.9471ZM401.59 63.8H392.23V65.8H401.59V63.8ZM391.523 64.0929L370.523 85.0929L371.937 86.5071L392.937 65.5071L391.523 64.0929ZM370.523 85.0929C369.01 86.6061 367.839 88.2803 367.177 90.001L369.044 90.719C369.582 89.3197 370.571 87.8739 371.937 86.5071L370.523 85.0929ZM368.11 89.36H359.35V91.36H368.11V89.36ZM360.35 90.36V37.92H358.35V90.36H360.35ZM359.35 36.92H351.91V38.92H359.35V36.92ZM350.91 37.92V123H352.91V37.92H350.91ZM351.91 124H359.35V122H351.91V124ZM517.265 106.56L518.132 107.059L518.624 106.206L517.778 105.701L517.265 106.56ZM511.025 102.84L511.538 101.981L510.686 101.473L510.171 102.32L511.025 102.84ZM511.025 63.12L510.171 63.6396L510.686 64.4865L511.538 63.9789L511.025 63.12ZM517.265 59.4L517.778 60.2589L518.624 59.7545L518.132 58.9008L517.265 59.4ZM485.585 125.32C499.364 125.32 511.584 118.425 518.132 107.059L516.399 106.061C510.227 116.775 498.687 123.32 485.585 123.32V125.32ZM517.778 105.701L511.538 101.981L510.513 103.699L516.753 107.419L517.778 105.701ZM510.171 102.32C504.959 110.891 495.69 116 485.345 116V118C496.361 118 506.292 112.549 511.88 103.36L510.171 102.32ZM485.345 116C468.316 116 454.425 101.508 454.425 82.8H452.425C452.425 102.492 467.095 118 485.345 118V116ZM454.425 82.8C454.425 64.3393 468.429 49.84 485.345 49.84V47.84C467.222 47.84 452.425 63.3407 452.425 82.8H454.425ZM485.345 49.84C495.682 49.84 504.955 55.0623 510.171 63.6396L511.88 62.6004C506.296 53.4177 496.369 47.84 485.345 47.84V49.84ZM511.538 63.9789L517.778 60.2589L516.753 58.541L510.513 62.2611L511.538 63.9789ZM518.132 58.9008C511.587 47.5405 499.371 40.52 485.585 40.52V42.52C498.68 42.52 510.224 49.1795 516.399 59.8992L518.132 58.9008ZM485.585 40.52C463.05 40.52 444.505 59.3509 444.505 82.8H446.505C446.505 60.4091 464.201 42.52 485.585 42.52V40.52ZM444.505 82.8C444.505 106.485 463.047 125.32 485.585 125.32V123.32C464.204 123.32 446.505 105.435 446.505 82.8H444.505ZM532.965 38.04V37.04H531.965V38.04H532.965ZM532.965 123H531.965V124H532.965V123ZM540.405 123V124H541.405V123H540.405ZM540.405 38.04H541.405V37.04H540.405V38.04ZM531.965 38.04V123H533.965V38.04H531.965ZM532.965 124H540.405V122H532.965V124ZM541.405 123V38.04H539.405V123H541.405ZM540.405 37.04H532.965V39.04H540.405V37.04ZM612.851 109.8L613.727 110.282L614.212 109.4L613.327 108.921L612.851 109.8ZM607.091 106.68L607.567 105.801L606.703 105.333L606.22 106.188L607.091 106.68ZM565.091 96.48V95.48H563.985L564.096 96.5805L565.091 96.48ZM614.411 96.48V97.48H615.411V96.48H614.411ZM565.331 90.48L564.336 90.3847L564.231 91.48H565.331V90.48ZM606.971 90.48V91.48H607.991L607.971 90.4602L606.971 90.48ZM587.771 125.2C598.78 125.2 608.255 120.231 613.727 110.282L611.975 109.318C606.887 118.569 598.122 123.2 587.771 123.2V125.2ZM613.327 108.921L607.567 105.801L606.615 107.559L612.375 110.679L613.327 108.921ZM606.22 106.188C602.24 113.239 595.427 116.12 587.771 116.12V118.12C595.956 118.12 603.542 115.001 607.962 107.172L606.22 106.188ZM587.771 116.12C575.944 116.12 567.236 107.769 566.086 96.3795L564.096 96.5805C565.346 108.951 574.878 118.12 587.771 118.12V116.12ZM565.091 97.48H614.411V95.48H565.091V97.48ZM615.411 96.48V92.04H613.411V96.48H615.411ZM615.411 92.04C615.411 83.536 612.574 76.1079 607.499 70.799C602.419 65.4851 595.16 62.36 586.451 62.36V64.36C594.662 64.36 601.383 67.2949 606.053 72.181C610.729 77.072 613.411 83.984 613.411 92.04H615.411ZM586.451 62.36C568.78 62.36 556.771 76.4499 556.771 93.72H558.771C558.771 77.3901 570.042 64.36 586.451 64.36V62.36ZM556.771 93.72C556.771 111.657 570.043 125.2 587.771 125.2V123.2C571.179 123.2 558.771 110.583 558.771 93.72H556.771ZM566.327 90.5753C567.365 79.7283 574.923 71.44 586.451 71.44V69.44C573.739 69.44 565.457 78.6717 564.336 90.3847L566.327 90.5753ZM586.451 71.44C592.103 71.44 596.915 73.3398 600.338 76.6354C603.758 79.9286 605.856 84.6775 605.971 90.4998L607.971 90.4602C607.846 84.1625 605.564 78.8914 601.725 75.1946C597.888 71.5002 592.559 69.44 586.451 69.44V71.44ZM606.971 89.48H565.331V91.48H606.971V89.48ZM679.974 109.44H680.974L679.082 108.988L679.974 109.44ZM679.974 123H678.974V124H679.974V123ZM687.054 123V124H688.054V123H687.054ZM655.494 125.2C666.918 125.2 676.259 118.982 680.866 109.892L679.082 108.988C674.81 117.418 666.151 123.2 655.494 123.2V125.2ZM678.974 109.44V123H680.974V109.44H678.974ZM679.974 124H687.054V122H679.974V124ZM688.054 123V93.72H686.054V123H688.054ZM688.054 93.72C688.054 76.1148 674.154 62.48 656.454 62.48V64.48C673.075 64.48 686.054 77.2452 686.054 93.72H688.054ZM656.454 62.48C638.494 62.48 624.974 76.6155 624.974 93.72H626.974C626.974 77.7045 639.614 64.48 656.454 64.48V62.48ZM624.974 93.72C624.974 111.03 638.101 125.2 655.494 125.2V123.2C639.288 123.2 626.974 110.01 626.974 93.72H624.974ZM656.454 116.12C644.183 116.12 634.414 106.025 634.414 93.84H632.414C632.414 107.095 643.045 118.12 656.454 118.12V116.12ZM634.414 93.84C634.414 81.6553 644.183 71.56 656.454 71.56V69.56C643.045 69.56 632.414 80.5847 632.414 93.84H634.414ZM656.454 71.56C668.849 71.56 678.614 81.6588 678.614 93.84H680.614C680.614 80.5812 669.98 69.56 656.454 69.56V71.56ZM678.614 93.84C678.614 106.021 668.849 116.12 656.454 116.12V118.12C669.98 118.12 680.614 107.099 680.614 93.84H678.614ZM713.669 123V124H714.669V123H713.669ZM737.549 73.68L737.045 74.5438L738.549 75.421V73.68H737.549ZM737.549 66.12H738.549V65.4908L737.982 65.2185L737.549 66.12ZM706.229 123H705.229V124H706.229V123ZM714.669 123V87.48H712.669V123H714.669ZM714.669 87.48C714.669 82.6784 715.998 78.8542 718.29 76.2449C720.569 73.6503 723.883 72.16 728.069 72.16V70.16C723.375 70.16 719.489 71.8497 716.788 74.9251C714.099 77.9858 712.669 82.3216 712.669 87.48H714.669ZM728.069 72.16C731.26 72.16 734.325 72.957 737.045 74.5438L738.053 72.8162C735.013 71.043 731.598 70.16 728.069 70.16V72.16ZM738.549 73.68V66.12H736.549V73.68H738.549ZM737.982 65.2185C734.829 63.7054 731.198 62.96 727.469 62.96V64.96C730.94 64.96 734.269 65.6546 737.116 67.0215L737.982 65.2185ZM727.469 62.96C720.495 62.96 714.901 65.4595 711.061 69.7917C707.233 74.1091 705.229 80.1541 705.229 87.12H707.229C707.229 80.5258 709.124 74.9909 712.557 71.1183C715.977 67.2605 721.003 64.96 727.469 64.96V62.96ZM705.229 87.12V123H707.229V87.12H705.229ZM706.229 124H713.669V122H706.229V124ZM802.768 64.8H803.768V63.8H802.768V64.8ZM795.328 64.8V63.8H794.328V64.8H795.328ZM755.968 64.8H756.968V63.8H755.968V64.8ZM748.528 64.8V63.8H747.528V64.8H748.528ZM795.328 110.64H796.328L794.415 110.231L795.328 110.64ZM795.328 118.8H794.328L794.328 118.808L795.328 118.8ZM753.808 133.2L754.681 132.713L754.194 131.839L753.321 132.327L753.808 133.2ZM747.568 136.68L747.081 135.807L746.217 136.288L746.689 137.157L747.568 136.68ZM774.088 152.08C783.707 152.08 791.17 148.616 796.212 142.65C801.234 136.707 803.768 128.386 803.768 118.8H801.768C801.768 128.054 799.321 135.873 794.684 141.36C790.066 146.824 783.189 150.08 774.088 150.08V152.08ZM803.768 118.8V64.8H801.768V118.8H803.768ZM802.768 63.8H795.328V65.8H802.768V63.8ZM794.328 64.8V93.6H796.328V64.8H794.328ZM794.328 93.6C794.328 99.832 792.493 105.415 789.2 109.42C785.923 113.407 781.165 115.88 775.168 115.88V117.88C781.771 117.88 787.093 115.133 790.745 110.69C794.383 106.265 796.328 100.208 796.328 93.6H794.328ZM775.168 115.88C769.122 115.88 764.619 113.761 761.61 110.163C758.579 106.541 756.968 101.304 756.968 94.92H754.968C754.968 101.616 756.656 107.359 760.076 111.447C763.516 115.559 768.614 117.88 775.168 117.88V115.88ZM756.968 94.92V64.8H754.968V94.92H756.968ZM755.968 63.8H748.528V65.8H755.968V63.8ZM747.528 64.8V95.64H749.528V64.8H747.528ZM747.528 95.64C747.528 104.206 749.792 111.546 754.345 116.758C758.915 121.99 765.688 124.96 774.448 124.96V122.96C766.168 122.96 759.981 120.17 755.851 115.442C751.704 110.694 749.528 103.874 749.528 95.64H747.528ZM774.448 124.96C785.061 124.96 792.488 119.431 796.241 111.049L794.415 110.231C790.968 117.929 784.235 122.96 774.448 122.96V124.96ZM794.328 110.64V118.8H796.328V110.64H794.328ZM794.328 118.808C794.387 125.734 792.682 131.791 789.306 136.093C785.955 140.363 780.884 143 773.968 143V145C781.452 145 787.121 142.117 790.88 137.327C794.614 132.569 796.389 126.026 796.328 118.792L794.328 118.808ZM773.968 143C765.955 143 758.543 139.641 754.681 132.713L752.934 133.687C757.233 141.399 765.421 145 773.968 145V143ZM753.321 132.327L747.081 135.807L748.055 137.553L754.295 134.073L753.321 132.327ZM746.689 137.157C752.185 147.274 762.775 152.08 774.088 152.08V150.08C763.321 150.08 753.511 145.526 748.447 136.203L746.689 137.157Z" fill="white"/>
</svg>
