<svg width="406" height="336" viewBox="0 0 406 336" fill="none" xmlns="http://www.w3.org/2000/svg">
<path d="M21.2628 123V98.28H36.9828C56.5428 98.28 71.1828 89.64 71.1828 70.44C71.1828 51.84 57.1428 42.84 36.7428 42.84H13.5828V123H21.2628ZM36.8628 50.04C52.3428 50.04 63.2628 56.28 63.2628 70.44C63.2628 85.2 51.6228 91.08 36.8628 91.08H21.2628V50.04H36.8628ZM110.42 124.2C121.46 124.2 130.46 118.2 134.9 109.44V123H141.98V93.72C141.98 76.68 128.54 63.48 111.38 63.48C93.98 63.48 80.9 77.16 80.9 93.72C80.9 110.52 93.62 124.2 110.42 124.2ZM111.38 117.12C98.54 117.12 88.34 106.56 88.34 93.84C88.34 81.12 98.54 70.56 111.38 70.56C124.34 70.56 134.54 81.12 134.54 93.84C134.54 106.56 124.34 117.12 111.38 117.12ZM184.675 124.32C188.995 124.32 193.315 122.88 196.315 120.6V113.4C193.435 115.8 189.475 117.36 185.275 117.36C177.595 117.36 172.555 112.32 172.555 103.68V71.52H196.315V64.8H172.555V49.32H165.115V64.8H152.755V71.52H165.115V103.92C165.115 116.28 172.315 124.32 184.675 124.32ZM221.681 123V87.48C221.681 77.52 227.201 71.16 236.081 71.16C239.441 71.16 242.681 72 245.561 73.68V66.12C242.561 64.68 239.081 63.96 235.481 63.96C222.041 63.96 214.241 73.56 214.241 87.12V123H221.681ZM259.853 50.76C262.853 50.76 265.133 48.36 265.133 45.24C265.133 42.12 262.853 39.72 259.853 39.72C256.853 39.72 254.453 42.12 254.453 45.24C254.453 48.36 256.853 50.76 259.853 50.76ZM256.133 64.8V123H263.573V64.8H256.133ZM310.579 124.2C320.899 124.2 330.259 119.64 335.659 109.8L329.419 106.32C325.219 113.64 318.379 117.12 310.579 117.12C298.579 117.12 288.379 106.56 288.379 93.84C288.379 81.12 298.579 70.56 310.579 70.56C318.379 70.56 325.219 74.04 329.419 81.48L335.659 77.88C330.259 68.04 320.899 63.48 310.579 63.48C294.499 63.48 280.939 77.04 280.939 93.84C280.939 110.64 294.499 124.32 310.579 124.2ZM359.315 123V96.96H367.835C368.435 98.76 369.395 100.56 370.955 102.12L391.715 123H401.435L376.115 97.44C374.915 96.24 374.195 95.04 374.195 93.84C374.195 92.52 374.915 91.44 376.115 90.24L401.555 64.8H392.195L371.195 85.8C369.755 87.24 368.675 88.8 368.075 90.36H359.315V37.92H351.875V123H359.315ZM61.7417 292.32C75.1817 292.32 87.0617 285.6 93.4217 274.56L87.1817 270.84C81.7817 279.72 72.1817 285 61.5017 285C43.8617 285 29.5817 270 29.5817 250.8C29.5817 231.84 43.9817 216.84 61.5017 216.84C72.1817 216.84 81.7817 222.24 87.1817 231.12L93.4217 227.4C87.0617 216.36 75.1817 209.52 61.7417 209.52C39.7817 209.52 21.6617 227.88 21.6617 250.8C21.6617 273.96 39.7817 292.32 61.7417 292.32ZM109.121 206.04V291H116.561V206.04H109.121ZM163.927 292.2C174.607 292.2 183.727 287.4 189.007 277.8L183.247 274.68C179.047 282.12 171.847 285.12 163.927 285.12C151.567 285.12 142.447 276.36 141.247 264.48H190.567V260.04C190.567 243.48 179.527 231.36 162.607 231.36C145.567 231.36 133.927 244.92 133.927 261.72C133.927 279.12 146.767 292.2 163.927 292.2ZM141.487 258.48C142.567 247.2 150.487 238.44 162.607 238.44C174.367 238.44 182.887 246.36 183.127 258.48H141.487ZM231.65 292.2C242.69 292.2 251.69 286.2 256.13 277.44V291H263.21V261.72C263.21 244.68 249.77 231.48 232.61 231.48C215.21 231.48 202.13 245.16 202.13 261.72C202.13 278.52 214.85 292.2 231.65 292.2ZM232.61 285.12C219.77 285.12 209.57 274.56 209.57 261.84C209.57 249.12 219.77 238.56 232.61 238.56C245.57 238.56 255.77 249.12 255.77 261.84C255.77 274.56 245.57 285.12 232.61 285.12ZM289.825 291V255.48C289.825 245.52 295.345 239.16 304.225 239.16C307.585 239.16 310.825 240 313.705 241.68V234.12C310.705 232.68 307.225 231.96 303.625 231.96C290.185 231.96 282.385 241.56 282.385 255.12V291H289.825ZM350.244 319.08C368.964 319.08 378.924 305.64 378.924 286.8V232.8H371.484V261.6C371.484 274.44 363.924 284.88 351.324 284.88C338.724 284.88 332.124 276 332.124 262.92V232.8H324.684V263.64C324.684 280.44 333.564 291.96 350.604 291.96C360.804 291.96 367.884 286.68 371.484 278.64V286.8C371.604 300.96 364.524 312 350.124 312C341.844 312 334.044 308.52 329.964 301.2L323.724 304.68C329.004 314.4 339.204 319.08 350.244 319.08Z"/>
<path d="M21.2628 123V124H22.2628V123H21.2628ZM21.2628 98.28V97.28H20.2628V98.28H21.2628ZM13.5828 42.84V41.84H12.5828V42.84H13.5828ZM13.5828 123H12.5828V124H13.5828V123ZM21.2628 91.08H20.2628V92.08H21.2628V91.08ZM21.2628 50.04V49.04H20.2628V50.04H21.2628ZM22.2628 123V98.28H20.2628V123H22.2628ZM21.2628 99.28H36.9828V97.28H21.2628V99.28ZM36.9828 99.28C46.8903 99.28 55.6791 97.0946 62.0162 92.3612C68.3959 87.5961 72.1828 80.3271 72.1828 70.44H70.1828C70.1828 79.7529 66.6498 86.4039 60.8194 90.7588C54.9466 95.1454 46.6353 97.28 36.9828 97.28V99.28ZM72.1828 70.44C72.1828 60.8576 68.5496 53.6489 62.2153 48.8669C55.9218 44.1156 47.0707 41.84 36.7428 41.84V43.84C46.815 43.84 55.1838 46.0644 61.0103 50.4631C66.796 54.831 70.1828 61.4224 70.1828 70.44H72.1828ZM36.7428 41.84H13.5828V43.84H36.7428V41.84ZM12.5828 42.84V123H14.5828V42.84H12.5828ZM13.5828 124H21.2628V122H13.5828V124ZM36.8628 51.04C44.4917 51.04 50.8562 52.5812 55.2868 55.7439C59.6664 58.8701 62.2628 63.6544 62.2628 70.44H64.2628C64.2628 63.0656 61.3993 57.6498 56.4488 54.1161C51.5494 50.6187 44.714 49.04 36.8628 49.04V51.04ZM62.2628 70.44C62.2628 77.5155 59.4947 82.3592 55.0259 85.4747C50.503 88.6278 44.134 90.08 36.8628 90.08V92.08C44.3516 92.08 51.1826 90.5922 56.1697 87.1153C61.2109 83.6008 64.2628 78.1244 64.2628 70.44H62.2628ZM36.8628 90.08H21.2628V92.08H36.8628V90.08ZM22.2628 91.08V50.04H20.2628V91.08H22.2628ZM21.2628 51.04H36.8628V49.04H21.2628V51.04ZM134.9 109.44H135.9L134.008 108.988L134.9 109.44ZM134.9 123H133.9V124H134.9V123ZM141.98 123V124H142.98V123H141.98ZM110.42 125.2C121.843 125.2 131.185 118.982 135.792 109.892L134.008 108.988C129.735 117.418 121.077 123.2 110.42 123.2V125.2ZM133.9 109.44V123H135.9V109.44H133.9ZM134.9 124H141.98V122H134.9V124ZM142.98 123V93.72H140.98V123H142.98ZM142.98 93.72C142.98 76.1148 129.079 62.48 111.38 62.48V64.48C128.001 64.48 140.98 77.2452 140.98 93.72H142.98ZM111.38 62.48C93.42 62.48 79.9 76.6155 79.9 93.72H81.9C81.9 77.7045 94.54 64.48 111.38 64.48V62.48ZM79.9 93.72C79.9 111.03 93.0263 125.2 110.42 125.2V123.2C94.2137 123.2 81.9 110.01 81.9 93.72H79.9ZM111.38 116.12C99.1091 116.12 89.34 106.025 89.34 93.84H87.34C87.34 107.095 97.9709 118.12 111.38 118.12V116.12ZM89.34 93.84C89.34 81.6553 99.1091 71.56 111.38 71.56V69.56C97.9709 69.56 87.34 80.5847 87.34 93.84H89.34ZM111.38 71.56C123.774 71.56 133.54 81.6588 133.54 93.84H135.54C135.54 80.5812 124.906 69.56 111.38 69.56V71.56ZM133.54 93.84C133.54 106.021 123.774 116.12 111.38 116.12V118.12C124.906 118.12 135.54 107.099 135.54 93.84H133.54ZM196.315 120.6L196.92 121.396L197.315 121.096V120.6H196.315ZM196.315 113.4H197.315V111.265L195.675 112.632L196.315 113.4ZM172.555 71.52V70.52H171.555V71.52H172.555ZM196.315 71.52V72.52H197.315V71.52H196.315ZM196.315 64.8H197.315V63.8H196.315V64.8ZM172.555 64.8H171.555V65.8H172.555V64.8ZM172.555 49.32H173.555V48.32H172.555V49.32ZM165.115 49.32V48.32H164.115V49.32H165.115ZM165.115 64.8V65.8H166.115V64.8H165.115ZM152.755 64.8V63.8H151.755V64.8H152.755ZM152.755 71.52H151.755V72.52H152.755V71.52ZM165.115 71.52H166.115V70.52H165.115V71.52ZM184.675 125.32C189.196 125.32 193.732 123.819 196.92 121.396L195.71 119.804C192.897 121.941 188.794 123.32 184.675 123.32V125.32ZM197.315 120.6V113.4H195.315V120.6H197.315ZM195.675 112.632C192.968 114.887 189.233 116.36 185.275 116.36V118.36C189.716 118.36 193.901 116.713 196.955 114.168L195.675 112.632ZM185.275 116.36C181.66 116.36 178.76 115.179 176.76 113.072C174.756 110.959 173.555 107.807 173.555 103.68H171.555C171.555 108.193 172.874 111.881 175.309 114.448C177.75 117.021 181.21 118.36 185.275 118.36V116.36ZM173.555 103.68V71.52H171.555V103.68H173.555ZM172.555 72.52H196.315V70.52H172.555V72.52ZM197.315 71.52V64.8H195.315V71.52H197.315ZM196.315 63.8H172.555V65.8H196.315V63.8ZM173.555 64.8V49.32H171.555V64.8H173.555ZM172.555 48.32H165.115V50.32H172.555V48.32ZM164.115 49.32V64.8H166.115V49.32H164.115ZM165.115 63.8H152.755V65.8H165.115V63.8ZM151.755 64.8V71.52H153.755V64.8H151.755ZM152.755 72.52H165.115V70.52H152.755V72.52ZM164.115 71.52V103.92H166.115V71.52H164.115ZM164.115 103.92C164.115 110.291 165.973 115.658 169.531 119.44C173.098 123.231 178.27 125.32 184.675 125.32V123.32C178.719 123.32 174.112 121.389 170.988 118.07C167.857 114.742 166.115 109.909 166.115 103.92H164.115ZM221.681 123V124H222.681V123H221.681ZM245.561 73.68L245.057 74.5438L246.561 75.421V73.68H245.561ZM245.561 66.12H246.561V65.4908L245.993 65.2185L245.561 66.12ZM214.241 123H213.241V124H214.241V123ZM222.681 123V87.48H220.681V123H222.681ZM222.681 87.48C222.681 82.6784 224.01 78.8542 226.302 76.2449C228.581 73.6503 231.894 72.16 236.081 72.16V70.16C231.387 70.16 227.5 71.8497 224.799 74.9251C222.111 77.9858 220.681 82.3216 220.681 87.48H222.681ZM236.081 72.16C239.272 72.16 242.337 72.957 245.057 74.5438L246.064 72.8162C243.025 71.043 239.61 70.16 236.081 70.16V72.16ZM246.561 73.68V66.12H244.561V73.68H246.561ZM245.993 65.2185C242.841 63.7054 239.21 62.96 235.481 62.96V64.96C238.951 64.96 242.28 65.6546 245.128 67.0215L245.993 65.2185ZM235.481 62.96C228.507 62.96 222.913 65.4595 219.072 69.7917C215.245 74.1091 213.241 80.1541 213.241 87.12H215.241C215.241 80.5258 217.136 74.9909 220.569 71.1183C223.989 67.2605 229.014 64.96 235.481 64.96V62.96ZM213.241 87.12V123H215.241V87.12H213.241ZM214.241 124H221.681V122H214.241V124ZM256.133 64.8V63.8H255.133V64.8H256.133ZM256.133 123H255.133V124H256.133V123ZM263.573 123V124H264.573V123H263.573ZM263.573 64.8H264.573V63.8H263.573V64.8ZM259.853 51.76C263.448 51.76 266.133 48.8679 266.133 45.24H264.133C264.133 47.8521 262.257 49.76 259.853 49.76V51.76ZM266.133 45.24C266.133 41.6121 263.448 38.72 259.853 38.72V40.72C262.257 40.72 264.133 42.6279 264.133 45.24H266.133ZM259.853 38.72C256.286 38.72 253.453 41.5822 253.453 45.24H255.453C255.453 42.6578 257.419 40.72 259.853 40.72V38.72ZM253.453 45.24C253.453 48.8978 256.286 51.76 259.853 51.76V49.76C257.419 49.76 255.453 47.8222 255.453 45.24H253.453ZM255.133 64.8V123H257.133V64.8H255.133ZM256.133 124H263.573V122H256.133V124ZM264.573 123V64.8H262.573V123H264.573ZM263.573 63.8H256.133V65.8H263.573V63.8ZM310.579 124.2V123.2L310.572 123.2L310.579 124.2ZM335.659 109.8L336.536 110.281L337.014 109.41L336.146 108.927L335.659 109.8ZM329.419 106.32L329.906 105.447L329.043 104.965L328.552 105.822L329.419 106.32ZM329.419 81.48L328.548 81.9716L329.044 82.8506L329.919 82.3462L329.419 81.48ZM335.659 77.88L336.159 78.7462L337.007 78.257L336.536 77.3989L335.659 77.88ZM310.579 125.2C321.214 125.2 330.937 120.482 336.536 110.281L334.782 109.319C329.581 118.798 320.584 123.2 310.579 123.2V125.2ZM336.146 108.927L329.906 105.447L328.932 107.193L335.172 110.673L336.146 108.927ZM328.552 105.822C324.543 112.809 318.048 116.12 310.579 116.12V118.12C318.71 118.12 325.895 114.471 330.286 106.818L328.552 105.822ZM310.579 116.12C299.172 116.12 289.379 106.049 289.379 93.84H287.379C287.379 107.071 297.986 118.12 310.579 118.12V116.12ZM289.379 93.84C289.379 81.6309 299.172 71.56 310.579 71.56V69.56C297.986 69.56 287.379 80.6091 287.379 93.84H289.379ZM310.579 71.56C318.046 71.56 324.539 74.8687 328.548 81.9716L330.29 80.9884C325.9 73.2113 318.713 69.56 310.579 69.56V71.56ZM329.919 82.3462L336.159 78.7462L335.159 77.0138L328.919 80.6138L329.919 82.3462ZM336.536 77.3989C330.937 67.1976 321.214 62.48 310.579 62.48V64.48C320.584 64.48 329.581 68.8824 334.782 78.3611L336.536 77.3989ZM310.579 62.48C293.931 62.48 279.939 76.5034 279.939 93.84H281.939C281.939 77.5766 295.067 64.48 310.579 64.48V62.48ZM279.939 93.84C279.939 111.17 293.926 125.324 310.587 125.2L310.572 123.2C295.072 123.316 281.939 110.11 281.939 93.84H279.939ZM359.315 123V124H360.315V123H359.315ZM359.315 96.96V95.96H358.315V96.96H359.315ZM367.835 96.96L368.784 96.6438L368.556 95.96H367.835V96.96ZM370.955 102.12L371.664 101.415L371.662 101.413L370.955 102.12ZM391.715 123L391.006 123.705L391.299 124H391.715V123ZM401.435 123V124H403.833L402.145 122.296L401.435 123ZM376.115 97.44L376.825 96.7362L376.822 96.7329L376.115 97.44ZM376.115 90.24L376.822 90.9471L376.822 90.9471L376.115 90.24ZM401.555 64.8L402.262 65.5071L403.969 63.8H401.555V64.8ZM392.195 64.8V63.8H391.781L391.488 64.0929L392.195 64.8ZM368.075 90.36V91.36H368.762L369.008 90.719L368.075 90.36ZM359.315 90.36H358.315V91.36H359.315V90.36ZM359.315 37.92H360.315V36.92H359.315V37.92ZM351.875 37.92V36.92H350.875V37.92H351.875ZM351.875 123H350.875V124H351.875V123ZM360.315 123V96.96H358.315V123H360.315ZM359.315 97.96H367.835V95.96H359.315V97.96ZM366.886 97.2762C367.525 99.1916 368.557 101.136 370.248 102.827L371.662 101.413C370.233 99.9842 369.345 98.3284 368.784 96.6438L366.886 97.2762ZM370.246 102.825L391.006 123.705L392.424 122.295L371.664 101.415L370.246 102.825ZM391.715 124H401.435V122H391.715V124ZM402.145 122.296L376.825 96.7362L375.405 98.1438L400.725 123.704L402.145 122.296ZM376.822 96.7329C375.683 95.5933 375.195 94.6373 375.195 93.84H373.195C373.195 95.4427 374.147 96.8867 375.408 98.1471L376.822 96.7329ZM375.195 93.84C375.195 92.9338 375.669 92.1006 376.822 90.9471L375.408 89.5329C374.161 90.7794 373.195 92.1062 373.195 93.84H375.195ZM376.822 90.9471L402.262 65.5071L400.848 64.0929L375.408 89.5329L376.822 90.9471ZM401.555 63.8H392.195V65.8H401.555V63.8ZM391.488 64.0929L370.488 85.0929L371.902 86.5071L392.902 65.5071L391.488 64.0929ZM370.488 85.0929C368.975 86.6061 367.803 88.2803 367.142 90.001L369.008 90.719C369.547 89.3197 370.535 87.8739 371.902 86.5071L370.488 85.0929ZM368.075 89.36H359.315V91.36H368.075V89.36ZM360.315 90.36V37.92H358.315V90.36H360.315ZM359.315 36.92H351.875V38.92H359.315V36.92ZM350.875 37.92V123H352.875V37.92H350.875ZM351.875 124H359.315V122H351.875V124ZM93.4217 274.56L94.2882 275.059L94.78 274.206L93.9338 273.701L93.4217 274.56ZM87.1817 270.84L87.6938 269.981L86.8423 269.473L86.3273 270.32L87.1817 270.84ZM87.1817 231.12L86.3273 231.64L86.8423 232.487L87.6938 231.979L87.1817 231.12ZM93.4217 227.4L93.9338 228.259L94.78 227.754L94.2882 226.901L93.4217 227.4ZM61.7417 293.32C75.5205 293.32 87.7405 286.425 94.2882 275.059L92.5552 274.061C86.3829 284.775 74.8429 291.32 61.7417 291.32V293.32ZM93.9338 273.701L87.6938 269.981L86.6697 271.699L92.9097 275.419L93.9338 273.701ZM86.3273 270.32C81.1155 278.891 71.8458 284 61.5017 284V286C72.5176 286 82.448 280.549 88.0361 271.36L86.3273 270.32ZM61.5017 284C44.4723 284 30.5817 269.508 30.5817 250.8H28.5817C28.5817 270.492 43.2511 286 61.5017 286V284ZM30.5817 250.8C30.5817 232.339 44.5855 217.84 61.5017 217.84V215.84C43.3779 215.84 28.5817 231.341 28.5817 250.8H30.5817ZM61.5017 217.84C71.8378 217.84 81.1114 223.062 86.3273 231.64L88.0361 230.6C82.452 221.418 72.5257 215.84 61.5017 215.84V217.84ZM87.6938 231.979L93.9338 228.259L92.9097 226.541L86.6697 230.261L87.6938 231.979ZM94.2882 226.901C87.7437 215.54 75.5271 208.52 61.7417 208.52V210.52C74.8364 210.52 86.3798 217.18 92.5552 227.899L94.2882 226.901ZM61.7417 208.52C39.2065 208.52 20.6617 227.351 20.6617 250.8H22.6617C22.6617 228.409 40.3569 210.52 61.7417 210.52V208.52ZM20.6617 250.8C20.6617 274.485 39.2028 293.32 61.7417 293.32V291.32C40.3606 291.32 22.6617 273.435 22.6617 250.8H20.6617ZM109.121 206.04V205.04H108.121V206.04H109.121ZM109.121 291H108.121V292H109.121V291ZM116.561 291V292H117.561V291H116.561ZM116.561 206.04H117.561V205.04H116.561V206.04ZM108.121 206.04V291H110.121V206.04H108.121ZM109.121 292H116.561V290H109.121V292ZM117.561 291V206.04H115.561V291H117.561ZM116.561 205.04H109.121V207.04H116.561V205.04ZM189.007 277.8L189.884 278.282L190.369 277.4L189.484 276.921L189.007 277.8ZM183.247 274.68L183.724 273.801L182.86 273.333L182.377 274.188L183.247 274.68ZM141.247 264.48V263.48H140.141L140.252 264.58L141.247 264.48ZM190.567 264.48V265.48H191.567V264.48H190.567ZM141.487 258.48L140.492 258.385L140.387 259.48H141.487V258.48ZM183.127 258.48V259.48H184.147L184.127 258.46L183.127 258.48ZM163.927 293.2C174.937 293.2 184.411 288.231 189.884 278.282L188.131 277.318C183.043 286.569 174.278 291.2 163.927 291.2V293.2ZM189.484 276.921L183.724 273.801L182.771 275.559L188.531 278.679L189.484 276.921ZM182.377 274.188C178.397 281.239 171.583 284.12 163.927 284.12V286.12C172.112 286.12 179.698 283.001 184.118 275.172L182.377 274.188ZM163.927 284.12C152.101 284.12 143.393 275.769 142.242 264.379L140.252 264.58C141.502 276.951 151.034 286.12 163.927 286.12V284.12ZM141.247 265.48H190.567V263.48H141.247V265.48ZM191.567 264.48V260.04H189.567V264.48H191.567ZM191.567 260.04C191.567 251.536 188.73 244.108 183.655 238.799C178.576 233.485 171.317 230.36 162.607 230.36V232.36C170.818 232.36 177.539 235.295 182.209 240.181C186.885 245.072 189.567 251.984 189.567 260.04H191.567ZM162.607 230.36C144.936 230.36 132.927 244.45 132.927 261.72H134.927C134.927 245.39 146.198 232.36 162.607 232.36V230.36ZM132.927 261.72C132.927 279.657 146.199 293.2 163.927 293.2V291.2C147.335 291.2 134.927 278.583 134.927 261.72H132.927ZM142.483 258.575C143.521 247.728 151.079 239.44 162.607 239.44V237.44C149.895 237.44 141.613 246.672 140.492 258.385L142.483 258.575ZM162.607 239.44C168.259 239.44 173.071 241.34 176.494 244.635C179.914 247.929 182.012 252.677 182.128 258.5L184.127 258.46C184.002 252.162 181.72 246.891 177.881 243.195C174.044 239.5 168.716 237.44 162.607 237.44V239.44ZM183.127 257.48H141.487V259.48H183.127V257.48ZM256.13 277.44H257.13L255.239 276.988L256.13 277.44ZM256.13 291H255.13V292H256.13V291ZM263.21 291V292H264.21V291H263.21ZM231.65 293.2C243.074 293.2 252.415 286.982 257.022 277.892L255.239 276.988C250.966 285.418 242.307 291.2 231.65 291.2V293.2ZM255.13 277.44V291H257.13V277.44H255.13ZM256.13 292H263.21V290H256.13V292ZM264.21 291V261.72H262.21V291H264.21ZM264.21 261.72C264.21 244.115 250.31 230.48 232.61 230.48V232.48C249.231 232.48 262.21 245.245 262.21 261.72H264.21ZM232.61 230.48C214.65 230.48 201.13 244.615 201.13 261.72H203.13C203.13 245.705 215.77 232.48 232.61 232.48V230.48ZM201.13 261.72C201.13 279.03 214.257 293.2 231.65 293.2V291.2C215.444 291.2 203.13 278.01 203.13 261.72H201.13ZM232.61 284.12C220.34 284.12 210.57 274.025 210.57 261.84H208.57C208.57 275.095 219.201 286.12 232.61 286.12V284.12ZM210.57 261.84C210.57 249.655 220.34 239.56 232.61 239.56V237.56C219.201 237.56 208.57 248.585 208.57 261.84H210.57ZM232.61 239.56C245.005 239.56 254.77 249.659 254.77 261.84H256.77C256.77 248.581 246.136 237.56 232.61 237.56V239.56ZM254.77 261.84C254.77 274.021 245.005 284.12 232.61 284.12V286.12C246.136 286.12 256.77 275.099 256.77 261.84H254.77ZM289.825 291V292H290.825V291H289.825ZM313.705 241.68L313.201 242.544L314.705 243.421V241.68H313.705ZM313.705 234.12H314.705V233.491L314.138 233.218L313.705 234.12ZM282.385 291H281.385V292H282.385V291ZM290.825 291V255.48H288.825V291H290.825ZM290.825 255.48C290.825 250.678 292.155 246.854 294.447 244.245C296.725 241.65 300.039 240.16 304.225 240.16V238.16C299.531 238.16 295.645 239.85 292.944 242.925C290.256 245.986 288.825 250.322 288.825 255.48H290.825ZM304.225 240.16C307.416 240.16 310.481 240.957 313.201 242.544L314.209 240.816C311.169 239.043 307.754 238.16 304.225 238.16V240.16ZM314.705 241.68V234.12H312.705V241.68H314.705ZM314.138 233.218C310.986 231.705 307.355 230.96 303.625 230.96V232.96C307.096 232.96 310.425 233.655 313.272 235.022L314.138 233.218ZM303.625 230.96C296.651 230.96 291.057 233.46 287.217 237.792C283.39 242.109 281.385 248.154 281.385 255.12H283.385C283.385 248.526 285.281 242.991 288.713 239.118C292.133 235.26 297.159 232.96 303.625 232.96V230.96ZM281.385 255.12V291H283.385V255.12H281.385ZM282.385 292H289.825V290H282.385V292ZM378.924 232.8H379.924V231.8H378.924V232.8ZM371.484 232.8V231.8H370.484V232.8H371.484ZM332.124 232.8H333.124V231.8H332.124V232.8ZM324.684 232.8V231.8H323.684V232.8H324.684ZM371.484 278.64H372.484L370.572 278.231L371.484 278.64ZM371.484 286.8H370.484L370.484 286.808L371.484 286.8ZM329.964 301.2L330.838 300.713L330.351 299.839L329.477 300.327L329.964 301.2ZM323.724 304.68L323.237 303.807L322.373 304.288L322.845 305.157L323.724 304.68ZM350.244 320.08C359.863 320.08 367.326 316.616 372.368 310.65C377.391 304.707 379.924 296.386 379.924 286.8H377.924C377.924 296.054 375.478 303.873 370.84 309.36C366.222 314.824 359.345 318.08 350.244 318.08V320.08ZM379.924 286.8V232.8H377.924V286.8H379.924ZM378.924 231.8H371.484V233.8H378.924V231.8ZM370.484 232.8V261.6H372.484V232.8H370.484ZM370.484 261.6C370.484 267.832 368.649 273.415 365.357 277.42C362.079 281.407 357.322 283.88 351.324 283.88V285.88C357.927 285.88 363.249 283.133 366.902 278.69C370.539 274.265 372.484 268.208 372.484 261.6H370.484ZM351.324 283.88C345.278 283.88 340.776 281.761 337.766 278.163C334.736 274.541 333.124 269.304 333.124 262.92H331.124C331.124 269.616 332.813 275.359 336.232 279.447C339.673 283.559 344.77 285.88 351.324 285.88V283.88ZM333.124 262.92V232.8H331.124V262.92H333.124ZM332.124 231.8H324.684V233.8H332.124V231.8ZM323.684 232.8V263.64H325.684V232.8H323.684ZM323.684 263.64C323.684 272.206 325.948 279.546 330.501 284.758C335.071 289.99 341.845 292.96 350.604 292.96V290.96C342.324 290.96 336.137 288.17 332.007 283.442C327.86 278.694 325.684 271.874 325.684 263.64H323.684ZM350.604 292.96C361.217 292.96 368.644 287.431 372.397 279.049L370.572 278.231C367.125 285.929 360.391 290.96 350.604 290.96V292.96ZM370.484 278.64V286.8H372.484V278.64H370.484ZM370.484 286.808C370.543 293.734 368.839 299.791 365.463 304.093C362.111 308.363 357.04 311 350.124 311V313C357.608 313 363.277 310.117 367.036 305.327C370.77 300.569 372.545 294.026 372.484 286.792L370.484 286.808ZM350.124 311C342.111 311 334.699 307.641 330.838 300.713L329.091 301.687C333.389 309.399 341.577 313 350.124 313V311ZM329.477 300.327L323.237 303.807L324.211 305.553L330.451 302.073L329.477 300.327ZM322.845 305.157C328.341 315.274 338.931 320.08 350.244 320.08V318.08C339.478 318.08 329.668 313.526 324.603 304.203L322.845 305.157Z" fill="white"/>
</svg>
