<svg width="29" height="29" viewBox="0 0 29 29" fill="none" xmlns="http://www.w3.org/2000/svg">
<path d="M14.2351 24.9035C20.1269 24.9035 24.9032 20.1272 24.9032 14.2353C24.9032 8.34344 20.1269 3.56714 14.2351 3.56714C8.3432 3.56714 3.56689 8.34344 3.56689 14.2353C3.56689 20.1272 8.3432 24.9035 14.2351 24.9035Z" fill="white"/>
<path d="M6.80273 8.95923H21.7017V12.5098H16.3095V21.6184H12.1949V12.5098H6.80273V8.95923Z" fill="#2E2D2C"/>
<path d="M0 14.2353C0 6.37104 6.37104 0 14.2353 0C22.0995 0 28.4706 6.37104 28.4706 14.2353C28.4706 22.0995 22.0995 28.4706 14.2353 28.4706C6.37104 28.4706 0 22.083 0 14.2353ZM14.2353 24.9035C20.1252 24.9035 24.9035 20.1252 24.9035 14.2353C24.9035 8.3454 20.1252 3.56712 14.2353 3.56712C8.3454 3.56712 3.56712 8.3454 3.56712 14.2519C3.56712 20.1584 8.32881 24.9035 14.2353 24.9035Z" fill="#D13434"/>
</svg>
