<svg width="100%" height="100%" viewBox="0 0 168 397" fill="none" xmlns="http://www.w3.org/2000/svg">
<path d="M45 69.14H43V71.14H45V69.14ZM45 52.94V50.94H43V52.94H45ZM51.96 52.94V54.94H57.687L53.205 51.3748L51.96 52.94ZM45.44 34.1C45.44 18.0969 58.524 6.7 74.88 6.7V2.7C56.676 2.7 41.44 15.5431 41.44 34.1H45.44ZM74.88 6.7C90.7957 6.7 104.2 19.7048 104.2 36.86H108.2C108.2 17.5352 93.0443 2.7 74.88 2.7V6.7ZM104.2 36.86C104.2 54.4056 91.6059 67.14 74.88 67.14V71.14C93.9141 71.14 108.2 56.5144 108.2 36.86H104.2ZM74.88 67.14L45 67.14V71.14L74.88 71.14V67.14ZM47 69.14V52.94H43V69.14H47ZM45 54.94H51.96V50.94H45V54.94ZM53.205 51.3748C48.4354 47.5808 45.44 41.6944 45.44 34.1H41.44C41.44 42.8256 44.9246 49.8993 50.715 54.5052L53.205 51.3748ZM57.4 36.86C57.4 46.7756 65.3072 54.1 74.76 54.1V50.1C67.4128 50.1 61.4 44.4644 61.4 36.86H57.4ZM74.76 54.1C84.2128 54.1 92.12 46.7756 92.12 36.86H88.12C88.12 44.4644 82.1072 50.1 74.76 50.1V54.1ZM92.12 36.86C92.12 26.9238 84.1916 19.74 74.76 19.74V23.74C82.1284 23.74 88.12 29.2762 88.12 36.86H92.12ZM74.76 19.74C65.3284 19.74 57.4 26.9238 57.4 36.86H61.4C61.4 29.2762 67.3916 23.74 74.76 23.74V19.74ZM131.76 94.2031H133.76V92.2031H131.76V94.2031ZM131.76 111.243V113.243H133.76V111.243H131.76ZM100.56 111.243V109.243H96.5384L98.9652 112.45L100.56 111.243ZM45.32 126.363C45.32 108.937 57.7943 96.2031 74.64 96.2031V92.2031C55.4858 92.2031 41.32 106.829 41.32 126.363H45.32ZM74.64 96.2031H131.76V92.2031H74.64V96.2031ZM129.76 94.2031V111.243H133.76V94.2031H129.76ZM131.76 109.243H100.56V113.243H131.76V109.243ZM98.9652 112.45C102.09 116.579 104.08 121.803 104.08 127.323H108.08C108.08 120.844 105.75 114.787 102.155 110.036L98.9652 112.45ZM104.08 127.323C104.08 136.081 101.018 143.352 95.8835 148.431C90.747 153.512 83.4109 156.523 74.64 156.523V160.523C84.3491 160.523 92.733 157.174 98.6965 151.275C104.662 145.374 108.08 137.045 108.08 127.323H104.08ZM74.64 156.523C58.6043 156.523 45.32 143.638 45.32 126.363H41.32C41.32 145.808 56.3557 160.523 74.64 160.523V156.523ZM57.4 126.363C57.4 136.279 65.1877 143.483 74.64 143.483V139.483C67.2923 139.483 61.4 133.967 61.4 126.363H57.4ZM74.64 143.483C84.0716 143.483 92 136.299 92 126.363H88C88 133.947 82.0084 139.483 74.64 139.483V143.483ZM92 126.363C92 116.427 84.0716 109.243 74.64 109.243V113.243C82.0084 113.243 88 118.779 88 126.363H92ZM74.64 109.243C65.1877 109.243 57.4 116.447 57.4 126.363H61.4C61.4 118.759 67.2923 113.243 74.64 113.243V109.243ZM45.44 209.866C45.44 192.711 58.7243 179.706 74.88 179.706V175.706C56.4757 175.706 41.44 190.541 41.44 209.866H45.44ZM74.88 179.706C90.9059 179.706 104.2 192.821 104.2 209.866H108.2C108.2 190.671 93.1741 175.706 74.88 175.706V179.706ZM104.2 209.866C104.2 227.146 90.7909 240.146 74.88 240.146V244.146C93.0491 244.146 108.2 229.306 108.2 209.866H104.2ZM74.88 240.146C58.734 240.146 45.44 227.031 45.44 209.866H41.44C41.44 229.181 56.466 244.146 74.88 244.146V240.146ZM57.4 209.866C57.4 219.782 65.3072 227.106 74.76 227.106V223.106C67.4128 223.106 61.4 217.471 61.4 209.866H57.4ZM74.76 227.106C84.2128 227.106 92.12 219.782 92.12 209.866H88.12C88.12 217.471 82.1072 223.106 74.76 223.106V227.106ZM92.12 209.866C92.12 199.93 84.1916 192.746 74.76 192.746V196.746C82.1284 196.746 88.12 202.282 88.12 209.866H92.12ZM74.76 192.746C65.3284 192.746 57.4 199.93 57.4 209.866H61.4C61.4 202.282 67.3916 196.746 74.76 196.746V192.746ZM104.4 306.76H106.4V304.76H104.4V306.76ZM104.4 323.8V325.8H106.4V323.8H104.4ZM104.4 263.44H106.4V261.44H104.4V263.44ZM104.4 280.48V282.48H106.4V280.48H104.4ZM57.88 293.56C57.88 298.622 60.1728 302.516 63.777 305.075C67.3115 307.585 72.0129 308.76 76.92 308.76V304.76C72.5871 304.76 68.7686 303.714 66.093 301.814C63.4872 299.964 61.88 297.257 61.88 293.56H57.88ZM76.92 308.76H104.4V304.76H76.92V308.76ZM102.4 306.76V323.8H106.4V306.76H102.4ZM104.4 321.8H74.88V325.8H104.4V321.8ZM74.88 321.8C66.5616 321.8 59.2106 319.334 53.9662 314.657C48.7544 310.009 45.44 303.017 45.44 293.56H41.44C41.44 304.023 45.1456 312.15 51.3038 317.642C57.4294 323.105 65.7984 325.8 74.88 325.8V321.8ZM45.44 293.56C45.44 284.166 48.7518 277.204 53.964 272.569C59.2092 267.905 66.5615 265.44 74.88 265.44V261.44C65.7985 261.44 57.4308 264.134 51.306 269.58C45.1482 275.056 41.44 283.153 41.44 293.56H45.44ZM74.88 265.44H104.4V261.44H74.88V265.44ZM102.4 263.44V280.48H106.4V263.44H102.4ZM104.4 278.48H76.8V282.48H104.4V278.48ZM76.8 278.48C71.9588 278.48 67.2891 279.621 63.7688 282.099C60.1754 284.629 57.88 288.494 57.88 293.56H61.88C61.88 289.865 63.4846 287.191 66.0712 285.37C68.7309 283.498 72.5212 282.48 76.8 282.48V278.48ZM90 353.125V355.125H92V353.125H90ZM90 342.205V340.205H88V342.205H90ZM104.4 342.205H106.4V340.205H104.4V342.205ZM104.4 353.125H102.4V355.125H104.4V353.125ZM119.52 353.125H121.52V351.125H119.52V353.125ZM119.52 370.165V372.165H121.52V370.165H119.52ZM104.4 370.165V368.165H102.4V370.165H104.4ZM104.4 391.165V393.165H106.4V391.165H104.4ZM90 391.165H88V393.165H90V391.165ZM90 370.165H92V368.165H90V370.165ZM61.44 391.165V393.165H65.0485L63.136 390.105L61.44 391.165ZM46.2 391.165L44.5155 392.243L45.1055 393.165H46.2V391.165ZM45.32 378.805C45.32 370.632 47.767 364.783 51.7272 360.97C55.7015 357.144 61.4519 355.125 68.52 355.125V351.125C60.7081 351.125 53.8585 353.366 48.9528 358.089C44.033 362.826 41.32 369.817 41.32 378.805H45.32ZM68.52 355.125H90V351.125H68.52V355.125ZM92 353.125L92 342.205H88L88 353.125H92ZM90 344.205H104.4V340.205H90V344.205ZM102.4 342.205L102.4 353.125H106.4V342.205H102.4ZM104.4 355.125H119.52V351.125H104.4V355.125ZM117.52 353.125V370.165H121.52V353.125H117.52ZM119.52 368.165H104.4V372.165H119.52V368.165ZM102.4 370.165V391.165H106.4V370.165H102.4ZM104.4 389.165H90V393.165H104.4V389.165ZM92 391.165V370.165H88V391.165H92ZM90 368.165H69V372.165H90V368.165ZM69 368.165C65.2984 368.165 62.1372 369.283 59.8968 371.505C57.6556 373.727 56.56 376.831 56.56 380.365H60.56C60.56 377.658 61.3844 375.663 62.7132 374.345C64.0428 373.026 66.1016 372.165 69 372.165V368.165ZM56.56 380.365C56.56 384.147 57.7101 388.97 59.744 392.225L63.136 390.105C61.5699 387.599 60.56 383.542 60.56 380.365H56.56ZM61.44 389.165H46.2V393.165H61.44V389.165ZM47.8845 390.087C46.2615 387.551 45.32 382.836 45.32 378.805H41.32C41.32 383.173 42.2985 388.779 44.5155 392.243L47.8845 390.087Z" fill="white"/>
</svg>
