<svg width="100%" height="100%" viewBox="0 0 168 531" fill="none" xmlns="http://www.w3.org/2000/svg">
<path d="M43.44 36.62L41.44 36.6334L41.4401 36.6411L43.44 36.62ZM106.08 36.62L108.08 36.6411L108.08 36.6334L106.08 36.62ZM89.28 63.98L87.5254 64.9398L88.4272 66.5886L90.1289 65.7909L89.28 63.98ZM81.6 49.94L80.689 48.1595L78.8587 49.096L79.8454 50.8998L81.6 49.94ZM67.92 49.94L69.6746 50.8998L70.6613 49.096L68.831 48.1595L67.92 49.94ZM60.24 63.98L59.3911 65.7909L61.0928 66.5886L61.9946 64.9398L60.24 63.98ZM45.44 36.6066C45.3274 19.8342 58.712 6.7 74.76 6.7V2.7C56.488 2.7 41.3126 17.6458 41.44 36.6334L45.44 36.6066ZM74.76 6.7C90.923 6.7 104.193 19.8292 104.08 36.6066L108.08 36.6334C108.207 17.6508 93.157 2.7 74.76 2.7V6.7ZM104.08 36.599C103.967 47.3828 99.1277 57.1551 88.4311 62.1691L90.1289 65.7909C102.472 60.0049 107.953 48.6572 108.08 36.6411L104.08 36.599ZM91.0346 63.0202L83.3546 48.9802L79.8454 50.8998L87.5254 64.9398L91.0346 63.0202ZM82.511 51.7205C88.2769 48.7705 92 43.3186 92 36.62H88C88 41.6814 85.2431 45.8295 80.689 48.1595L82.511 51.7205ZM92 36.62C92 26.923 84.1908 19.74 74.76 19.74V23.74C82.1293 23.74 88 29.277 88 36.62H92ZM74.76 19.74C65.3293 19.74 57.52 26.923 57.52 36.62H61.52C61.52 29.277 67.3907 23.74 74.76 23.74V19.74ZM57.52 36.62C57.52 43.3186 61.2431 48.7705 67.009 51.7205L68.831 48.1595C64.2769 45.8295 61.52 41.6814 61.52 36.62H57.52ZM66.1654 48.9802L58.4854 63.0202L61.9946 64.9398L69.6746 50.8998L66.1654 48.9802ZM61.0889 62.1691C50.3923 57.1551 45.5534 47.3828 45.4399 36.599L41.4401 36.6411C41.5666 48.6572 47.0477 60.0049 59.3911 65.7909L61.0889 62.1691ZM45.44 114.105C45.44 96.9501 58.7243 83.9453 74.88 83.9453V79.9453C56.4757 79.9453 41.44 94.7805 41.44 114.105H45.44ZM74.88 83.9453C90.9059 83.9453 104.2 97.0602 104.2 114.105H108.2C108.2 94.9105 93.1741 79.9453 74.88 79.9453V83.9453ZM104.2 114.105C104.2 131.385 90.7909 144.385 74.88 144.385V148.385C93.0491 148.385 108.2 133.545 108.2 114.105H104.2ZM74.88 144.385C58.734 144.385 45.44 131.27 45.44 114.105H41.44C41.44 133.42 56.466 148.385 74.88 148.385V144.385ZM57.4 114.105C57.4 124.021 65.3072 131.345 74.76 131.345V127.345C67.4128 127.345 61.4 121.71 61.4 114.105H57.4ZM74.76 131.345C84.2128 131.345 92.12 124.021 92.12 114.105H88.12C88.12 121.71 82.1072 127.345 74.76 127.345V131.345ZM92.12 114.105C92.12 104.169 84.1916 96.9853 74.76 96.9853V100.985C82.1284 100.985 88.12 106.522 88.12 114.105H92.12ZM74.76 96.9853C65.3284 96.9853 57.4 104.169 57.4 114.105H61.4C61.4 106.522 67.3916 100.985 74.76 100.985V96.9853ZM45 184.359H43V186.359H45V184.359ZM45 167.319V165.319H43V167.319H45ZM45 229.479H43V231.479H45V229.479ZM45 212.439V210.439H43V212.439H45ZM91.52 198.279C91.52 192.861 89.2819 188.776 85.6675 186.109C82.1313 183.5 77.4399 182.359 72.6 182.359V186.359C76.8801 186.359 80.6487 187.377 83.2925 189.328C85.8581 191.221 87.52 194.097 87.52 198.279H91.52ZM72.6 182.359H45V186.359H72.6V182.359ZM47 184.359V167.319H43V184.359H47ZM45 169.319H74.64V165.319H45V169.319ZM74.64 169.319C82.9009 169.319 90.2453 171.755 95.4999 176.498C100.722 181.212 104.08 188.383 104.08 198.279H108.08C108.08 187.415 104.358 179.105 98.1801 173.529C92.0347 167.982 83.6591 165.319 74.64 165.319V169.319ZM104.08 198.279C104.08 208.181 100.748 215.416 95.5344 220.189C90.2931 224.987 82.9519 227.479 74.64 227.479V231.479C83.7281 231.479 92.1069 228.75 98.2356 223.139C104.392 217.502 108.08 209.136 108.08 198.279H104.08ZM74.64 227.479H45V231.479H74.64V227.479ZM47 229.479V212.439H43V229.479H47ZM45 214.439H72.6V210.439H45V214.439ZM72.6 214.439C77.4507 214.439 82.1467 213.262 85.6825 210.602C89.2918 207.886 91.52 203.745 91.52 198.279H87.52C87.52 202.532 85.8482 205.471 83.2775 207.406C80.6334 209.395 76.8694 210.439 72.6 210.439V214.439ZM90 259.445V261.445H92V259.445H90ZM90 248.525V246.525H88V248.525H90ZM104.4 248.525H106.4V246.525H104.4V248.525ZM104.4 259.445H102.4V261.445H104.4V259.445ZM119.52 259.445H121.52V257.445H119.52V259.445ZM119.52 276.485V278.485H121.52V276.485H119.52ZM104.4 276.485V274.485H102.4V276.485H104.4ZM104.4 297.485V299.485H106.4V297.485H104.4ZM90 297.485H88V299.485H90V297.485ZM90 276.485H92V274.485H90V276.485ZM61.44 297.485V299.485H65.0485L63.136 296.425L61.44 297.485ZM46.2 297.485L44.5155 298.563L45.1055 299.485H46.2V297.485ZM45.32 285.125C45.32 276.953 47.767 271.104 51.7272 267.291C55.7015 263.464 61.4519 261.445 68.52 261.445V257.445C60.7081 257.445 53.8585 259.686 48.9528 264.409C44.033 269.146 41.32 276.137 41.32 285.125H45.32ZM68.52 261.445H90V257.445H68.52V261.445ZM92 259.445V248.525H88V259.445H92ZM90 250.525H104.4V246.525H90V250.525ZM102.4 248.525V259.445H106.4V248.525H102.4ZM104.4 261.445H119.52V257.445H104.4V261.445ZM117.52 259.445V276.485H121.52V259.445H117.52ZM119.52 274.485H104.4V278.485H119.52V274.485ZM102.4 276.485V297.485H106.4L106.4 276.485H102.4ZM104.4 295.485H90V299.485H104.4V295.485ZM92 297.485V276.485H88V297.485H92ZM90 274.485H69V278.485H90V274.485ZM69 274.485C65.2984 274.485 62.1372 275.603 59.8968 277.825C57.6556 280.047 56.56 283.152 56.56 286.685H60.56C60.56 283.978 61.3844 281.983 62.7132 280.665C64.0428 279.347 66.1016 278.485 69 278.485V274.485ZM56.56 286.685C56.56 290.467 57.7101 295.291 59.744 298.545L63.136 296.425C61.5699 293.919 60.56 289.863 60.56 286.685H56.56ZM61.44 295.485H46.2V299.485H61.44V295.485ZM47.8845 296.407C46.2615 293.871 45.32 289.157 45.32 285.125H41.32C41.32 289.493 42.2985 295.099 44.5155 298.563L47.8845 296.407ZM45 381.96H43V383.96H45V381.96ZM45 365.76V363.76H43V365.76H45ZM51.96 365.76V367.76H57.687L53.205 364.195L51.96 365.76ZM45.44 346.92C45.44 330.917 58.524 319.52 74.88 319.52V315.52C56.676 315.52 41.44 328.363 41.44 346.92H45.44ZM74.88 319.52C90.7957 319.52 104.2 332.525 104.2 349.68H108.2C108.2 330.356 93.0443 315.52 74.88 315.52V319.52ZM104.2 349.68C104.2 367.226 91.6059 379.96 74.88 379.96V383.96C93.9141 383.96 108.2 369.335 108.2 349.68H104.2ZM74.88 379.96H45V383.96H74.88V379.96ZM47 381.96V365.76H43V381.96H47ZM45 367.76H51.96V363.76H45V367.76ZM53.205 364.195C48.4354 360.401 45.44 354.515 45.44 346.92H41.44C41.44 355.646 44.9246 362.72 50.715 367.326L53.205 364.195ZM57.4 349.68C57.4 359.596 65.3072 366.92 74.76 366.92V362.92C67.4128 362.92 61.4 357.285 61.4 349.68H57.4ZM74.76 366.92C84.2128 366.92 92.12 359.596 92.12 349.68H88.12C88.12 357.285 82.1072 362.92 74.76 362.92V366.92ZM92.12 349.68C92.12 339.744 84.1916 332.56 74.76 332.56V336.56C82.1284 336.56 88.12 342.097 88.12 349.68H92.12ZM74.76 332.56C65.3284 332.56 57.4 339.744 57.4 349.68H61.4C61.4 342.097 67.3916 336.56 74.76 336.56V332.56ZM43.44 433.543L41.44 433.557L41.4401 433.564L43.44 433.543ZM106.08 433.543L108.08 433.564L108.08 433.557L106.08 433.543ZM89.28 460.903L87.5254 461.863L88.4272 463.512L90.1289 462.714L89.28 460.903ZM81.6 446.863L80.689 445.083L78.8587 446.019L79.8454 447.823L81.6 446.863ZM67.92 446.863L69.6746 447.823L70.6613 446.019L68.831 445.083L67.92 446.863ZM60.24 460.903L59.3911 462.714L61.0928 463.512L61.9946 461.863L60.24 460.903ZM45.44 433.53C45.3274 416.758 58.712 403.623 74.76 403.623V399.623C56.488 399.623 41.3126 414.569 41.44 433.557L45.44 433.53ZM74.76 403.623C90.923 403.623 104.193 416.753 104.08 433.53L108.08 433.557C108.207 414.574 93.157 399.623 74.76 399.623V403.623ZM104.08 433.522C103.967 444.306 99.1277 454.078 88.4311 459.093L90.1289 462.714C102.472 456.928 107.953 445.581 108.08 433.564L104.08 433.522ZM91.0346 459.944L83.3546 445.904L79.8454 447.823L87.5254 461.863L91.0346 459.944ZM82.511 448.644C88.2769 445.694 92 440.242 92 433.543H88C88 438.605 85.2431 442.753 80.689 445.083L82.511 448.644ZM92 433.543C92 423.846 84.1908 416.663 74.76 416.663V420.663C82.1293 420.663 88 426.2 88 433.543H92ZM74.76 416.663C65.3293 416.663 57.52 423.846 57.52 433.543H61.52C61.52 426.2 67.3907 420.663 74.76 420.663V416.663ZM57.52 433.543C57.52 440.242 61.2431 445.694 67.009 448.644L68.831 445.083C64.2769 442.753 61.52 438.605 61.52 433.543H57.52ZM66.1654 445.904L58.4854 459.944L61.9946 461.863L69.6746 447.823L66.1654 445.904ZM61.0889 459.093C50.3923 454.078 45.5534 444.306 45.4399 433.522L41.4401 433.564C41.5666 445.581 47.0477 456.928 59.3911 462.714L61.0889 459.093ZM90 486.789V488.789H92V486.789H90ZM90 475.869V473.869H88V475.869H90ZM104.4 475.869H106.4V473.869H104.4V475.869ZM104.4 486.789H102.4V488.789H104.4V486.789ZM119.52 486.789H121.52V484.789H119.52V486.789ZM119.52 503.829V505.829H121.52V503.829H119.52ZM104.4 503.829V501.829H102.4V503.829H104.4ZM104.4 524.829V526.829H106.4V524.829H104.4ZM90 524.829H88V526.829H90V524.829ZM90 503.829H92V501.829H90V503.829ZM61.44 524.829V526.829H65.0485L63.136 523.769L61.44 524.829ZM46.2 524.829L44.5155 525.907L45.1055 526.829H46.2V524.829ZM45.32 512.469C45.32 504.296 47.767 498.448 51.7272 494.634C55.7015 490.808 61.4519 488.789 68.52 488.789V484.789C60.7081 484.789 53.8585 487.03 48.9528 491.753C44.033 496.49 41.32 503.481 41.32 512.469H45.32ZM68.52 488.789H90V484.789H68.52V488.789ZM92 486.789V475.869H88V486.789H92ZM90 477.869H104.4V473.869H90V477.869ZM102.4 475.869V486.789H106.4V475.869H102.4ZM104.4 488.789H119.52V484.789H104.4V488.789ZM117.52 486.789V503.829H121.52V486.789H117.52ZM119.52 501.829H104.4V505.829H119.52V501.829ZM102.4 503.829V524.829H106.4V503.829H102.4ZM104.4 522.829H90V526.829H104.4V522.829ZM92 524.829V503.829H88V524.829H92ZM90 501.829H69V505.829H90V501.829ZM69 501.829C65.2984 501.829 62.1372 502.947 59.8968 505.169C57.6556 507.391 56.56 510.495 56.56 514.029H60.56C60.56 511.322 61.3844 509.327 62.7132 508.009C64.0428 506.691 66.1016 505.829 69 505.829V501.829ZM56.56 514.029C56.56 517.811 57.7101 522.634 59.744 525.889L63.136 523.769C61.5699 521.263 60.56 517.207 60.56 514.029H56.56ZM61.44 522.829H46.2V526.829H61.44V522.829ZM47.8845 523.751C46.2615 521.215 45.32 516.5 45.32 512.469H41.32C41.32 516.837 42.2985 522.443 44.5155 525.907L47.8845 523.751Z" fill="white"/>
</svg>
