<svg width="100%" height="100%" viewBox="0 0 169 617" fill="none" xmlns="http://www.w3.org/2000/svg">
<path d="M18.14 24.24H16.14V26.24H18.14V24.24ZM18.14 7.2V5.2L16.14 5.2V7.2L18.14 7.2ZM49.34 24.24L50.9348 25.4469L53.3616 22.24H49.34V24.24ZM20.14 24.24V7.2L16.14 7.2V24.24H20.14ZM18.14 9.2L75.38 9.2V5.2L18.14 5.2V9.2ZM75.38 9.2C92.1008 9.2 104.58 21.9291 104.58 39.36H108.58C108.58 19.8309 94.4193 5.2 75.38 5.2V9.2ZM104.58 39.36C104.58 56.6403 91.2907 69.52 75.38 69.52V73.52C93.5493 73.52 108.58 58.7997 108.58 39.36H104.58ZM75.38 69.52C66.5457 69.52 59.1796 66.5069 54.0296 61.4262C48.8819 56.3479 45.82 49.0782 45.82 40.32H41.82C41.82 50.0418 45.2381 58.3721 51.2204 64.2738C57.2004 70.1731 65.6143 73.52 75.38 73.52V69.52ZM45.82 40.32C45.82 34.7995 47.81 29.5761 50.9348 25.4469L47.7452 23.0331C44.15 27.7839 41.82 33.8405 41.82 40.32H45.82ZM49.34 22.24L18.14 22.24V26.24L49.34 26.24V22.24ZM57.9 39.36C57.9 49.2962 65.8284 56.48 75.26 56.48V52.48C67.8916 52.48 61.9 46.9438 61.9 39.36H57.9ZM75.26 56.48C84.7123 56.48 92.5 49.2762 92.5 39.36H88.5C88.5 46.9639 82.6077 52.48 75.26 52.48V56.48ZM92.5 39.36C92.5 29.4439 84.7123 22.24 75.26 22.24V26.24C82.6077 26.24 88.5 31.7562 88.5 39.36H92.5ZM75.26 22.24C65.8284 22.24 57.9 29.4238 57.9 39.36H61.9C61.9 31.7762 67.8916 26.24 75.26 26.24V22.24ZM45.94 124.063C45.94 106.908 59.2243 93.9031 75.38 93.9031V89.9031C56.9757 89.9031 41.94 104.738 41.94 124.063H45.94ZM75.38 93.9031C91.4059 93.9031 104.7 107.018 104.7 124.063H108.7C108.7 104.868 93.6741 89.9031 75.38 89.9031V93.9031ZM104.7 124.063C104.7 141.343 91.2909 154.343 75.38 154.343V158.343C93.5491 158.343 108.7 143.503 108.7 124.063H104.7ZM75.38 154.343C59.234 154.343 45.94 141.228 45.94 124.063H41.94C41.94 143.378 56.966 158.343 75.38 158.343V154.343ZM57.9 124.063C57.9 133.979 65.8072 141.303 75.26 141.303V137.303C67.9128 137.303 61.9 131.668 61.9 124.063H57.9ZM75.26 141.303C84.7128 141.303 92.62 133.979 92.62 124.063H88.62C88.62 131.668 82.6072 137.303 75.26 137.303V141.303ZM92.62 124.063C92.62 114.127 84.6916 106.943 75.26 106.943V110.943C82.6284 110.943 88.62 116.479 88.62 124.063H92.62ZM75.26 106.943C65.8284 106.943 57.9 114.127 57.9 124.063H61.9C61.9 116.479 67.8916 110.943 75.26 110.943V106.943ZM45.5 196.717H43.5V198.717H45.5V196.717ZM45.5 179.677V177.677H43.5V179.677H45.5ZM104.42 216.997V218.997H105.725L106.251 217.802L104.42 216.997ZM87.86 216.997L86.1324 215.989L84.3779 218.997H87.86V216.997ZM47.5 196.717V179.677H43.5V196.717H47.5ZM45.5 181.677H79.58V177.677H45.5V181.677ZM79.58 181.677C86.8375 181.677 93.0332 183.732 97.3917 187.683C101.719 191.607 104.46 197.6 104.46 205.957H108.46C108.46 196.673 105.381 189.527 100.078 184.72C94.8068 179.941 87.5625 177.677 79.58 177.677V181.677ZM104.46 205.957C104.46 209.601 103.769 213.51 102.589 216.191L106.251 217.802C107.711 214.483 108.46 209.992 108.46 205.957H104.46ZM104.42 214.997H87.86V218.997H104.42V214.997ZM89.5876 218.004C91.4601 214.794 92.38 210.961 92.38 207.517H88.38C88.38 210.312 87.6199 213.439 86.1324 215.989L89.5876 218.004ZM92.38 207.517C92.38 203.716 91.1465 200.451 88.7099 198.144C86.2868 195.85 82.8981 194.717 78.98 194.717V198.717C82.1419 198.717 84.4532 199.623 85.9601 201.049C87.4535 202.463 88.38 204.597 88.38 207.517H92.38ZM78.98 194.717H45.5V198.717H78.98V194.717ZM90.5 250.287V252.287H92.5V250.287H90.5ZM90.5 239.367V237.367H88.5V239.367H90.5ZM104.9 239.367H106.9V237.367H104.9V239.367ZM104.9 250.287H102.9V252.287H104.9V250.287ZM120.02 250.287H122.02V248.287H120.02V250.287ZM120.02 267.327V269.327H122.02V267.327H120.02ZM104.9 267.327V265.327H102.9V267.327H104.9ZM104.9 288.327L104.9 290.327H106.9L106.9 288.327H104.9ZM90.5 288.327H88.5V290.327H90.5V288.327ZM90.5 267.327H92.5V265.327H90.5V267.327ZM61.94 288.327V290.327H65.5485L63.636 287.267L61.94 288.327ZM46.7 288.327L45.0155 289.405L45.6055 290.327H46.7V288.327ZM45.82 275.967C45.82 267.795 48.267 261.946 52.2272 258.133C56.2015 254.306 61.9519 252.287 69.02 252.287V248.287C61.2081 248.287 54.3585 250.528 49.4528 255.251C44.533 259.988 41.82 266.98 41.82 275.967H45.82ZM69.02 252.287H90.5V248.287H69.02V252.287ZM92.5 250.287V239.367H88.5V250.287H92.5ZM90.5 241.367H104.9V237.367H90.5V241.367ZM102.9 239.367V250.287H106.9V239.367H102.9ZM104.9 252.287H120.02V248.287H104.9V252.287ZM118.02 250.287V267.327H122.02V250.287H118.02ZM120.02 265.327H104.9V269.327H120.02V265.327ZM102.9 267.327V288.327H106.9V267.327H102.9ZM104.9 286.327H90.5V290.327H104.9L104.9 286.327ZM92.5 288.327V267.327H88.5V288.327H92.5ZM90.5 265.327H69.5V269.327H90.5V265.327ZM69.5 265.327C65.7984 265.327 62.6372 266.445 60.3968 268.667C58.1556 270.889 57.06 273.994 57.06 277.527H61.06C61.06 274.821 61.8844 272.825 63.2132 271.507C64.5428 270.189 66.6016 269.327 69.5 269.327V265.327ZM57.06 277.527C57.06 281.309 58.2101 286.133 60.244 289.387L63.636 287.267C62.0699 284.761 61.06 280.705 61.06 277.527H57.06ZM61.94 286.327H46.7V290.327H61.94V286.327ZM48.3845 287.249C46.7615 284.713 45.82 279.999 45.82 275.967H41.82C41.82 280.336 42.7985 285.941 45.0155 289.405L48.3845 287.249ZM45.5 338.363H43.5V340.363H45.5V338.363ZM45.5 321.323V319.323H43.5V321.323H45.5ZM90.5 321.323V323.323H92.5V321.323H90.5ZM90.5 310.763V308.763H88.5V310.763H90.5ZM104.9 310.763H106.9V308.763H104.9V310.763ZM104.9 321.323H102.9V323.323H104.9V321.323ZM131.42 358.283V360.283H132.725L133.251 359.088L131.42 358.283ZM115.7 358.283L113.992 357.243L112.141 360.283H115.7V358.283ZM104.9 338.363V336.363H102.9V338.363H104.9ZM104.9 357.323V359.323H106.9V357.323H104.9ZM90.5 357.323H88.5V359.323H90.5V357.323ZM90.5 338.363H92.5V336.363H90.5V338.363ZM47.5 338.363V321.323H43.5V338.363H47.5ZM45.5 323.323H90.5V319.323H45.5V323.323ZM92.5 321.323V310.763H88.5V321.323H92.5ZM90.5 312.763H104.9V308.763H90.5V312.763ZM102.9 310.763V321.323H106.9V310.763H102.9ZM104.9 323.323H108.02V319.323H104.9V323.323ZM108.02 323.323C114.772 323.323 120.6 325.333 124.724 329.214C128.827 333.074 131.46 338.988 131.46 347.243H135.46C135.46 338.097 132.513 331.051 127.466 326.301C122.44 321.572 115.548 319.323 108.02 319.323V323.323ZM131.46 347.243C131.46 351.003 130.77 354.793 129.589 357.477L133.251 359.088C134.71 355.772 135.46 351.402 135.46 347.243H131.46ZM131.42 356.283H115.7V360.283H131.42V356.283ZM117.408 359.322C119.309 356.199 120.22 352.226 120.22 348.803H116.22C116.22 351.619 115.451 354.846 113.992 357.243L117.408 359.322ZM120.22 348.803C120.22 345.255 119.333 342.091 117.234 339.801C115.108 337.481 112.018 336.363 108.26 336.363V340.363C111.222 340.363 113.112 341.224 114.286 342.504C115.487 343.814 116.22 345.87 116.22 348.803H120.22ZM108.26 336.363H104.9V340.363H108.26V336.363ZM102.9 338.363L102.9 357.323H106.9V338.363H102.9ZM104.9 355.323H90.5V359.323H104.9V355.323ZM92.5 357.323L92.5 338.363H88.5L88.5 357.323H92.5ZM90.5 336.363H45.5V340.363H90.5V336.363ZM45.94 405.43C45.94 388.275 59.2243 375.27 75.38 375.27V371.27C56.9757 371.27 41.94 386.106 41.94 405.43H45.94ZM75.38 375.27C91.4059 375.27 104.7 388.385 104.7 405.43H108.7C108.7 386.235 93.6741 371.27 75.38 371.27V375.27ZM104.7 405.43C104.7 422.71 91.2909 435.71 75.38 435.71V439.71C93.5491 439.71 108.7 424.87 108.7 405.43H104.7ZM75.38 435.71C59.234 435.71 45.94 422.595 45.94 405.43H41.94C41.94 424.745 56.966 439.71 75.38 439.71V435.71ZM57.9 405.43C57.9 415.346 65.8072 422.67 75.26 422.67V418.67C67.9128 418.67 61.9 413.035 61.9 405.43H57.9ZM75.26 422.67C84.7128 422.67 92.62 415.346 92.62 405.43H88.62C88.62 413.035 82.6072 418.67 75.26 418.67V422.67ZM92.62 405.43C92.62 395.494 84.6916 388.31 75.26 388.31V392.31C82.6284 392.31 88.62 397.847 88.62 405.43H92.62ZM75.26 388.31C65.8284 388.31 57.9 395.494 57.9 405.43H61.9C61.9 397.847 67.8916 392.31 75.26 392.31V388.31ZM132.26 462.244H134.26V460.244H132.26V462.244ZM132.26 479.284V481.284H134.26V479.284H132.26ZM45.5 479.284H43.5V481.284H45.5V479.284ZM45.5 462.244V460.244H43.5V462.244H45.5ZM130.26 462.244V479.284H134.26V462.244H130.26ZM132.26 477.284H45.5V481.284H132.26V477.284ZM47.5 479.284V462.244H43.5V479.284H47.5ZM45.5 464.244H132.26V460.244H45.5V464.244ZM104.9 506.738H106.9V504.738H104.9V506.738ZM104.9 523.778V525.778H106.9V523.778H104.9ZM45.5 523.778H43.5V525.778H45.5V523.778ZM45.5 506.738V504.738H43.5V506.738H45.5ZM115.78 515.258C115.78 510.587 119.579 506.698 124.34 506.698V502.698C117.341 502.698 111.78 508.408 111.78 515.258H115.78ZM124.34 506.698C128.995 506.698 132.9 510.602 132.9 515.258H136.9C136.9 508.393 131.205 502.698 124.34 502.698V506.698ZM132.9 515.258C132.9 519.883 129.025 523.698 124.34 523.698V527.698C131.175 527.698 136.9 522.152 136.9 515.258H132.9ZM124.34 523.698C119.55 523.698 115.78 519.898 115.78 515.258H111.78C111.78 522.137 117.37 527.698 124.34 527.698V523.698ZM102.9 506.738V523.778H106.9V506.738H102.9ZM104.9 521.778H45.5V525.778H104.9V521.778ZM47.5 523.778V506.738H43.5V523.778H47.5ZM45.5 508.738H104.9V504.738H45.5V508.738ZM45.94 580.391C45.94 563.236 59.2243 550.231 75.38 550.231V546.231C56.9757 546.231 41.94 561.066 41.94 580.391H45.94ZM75.38 550.231C91.4059 550.231 104.7 563.346 104.7 580.391H108.7C108.7 561.196 93.6741 546.231 75.38 546.231V550.231ZM104.7 580.391C104.7 597.671 91.2909 610.671 75.38 610.671V614.671C93.5491 614.671 108.7 599.831 108.7 580.391H104.7ZM75.38 610.671C59.234 610.671 45.94 597.556 45.94 580.391H41.94C41.94 599.706 56.966 614.671 75.38 614.671V610.671ZM57.9 580.391C57.9 590.307 65.8072 597.631 75.26 597.631V593.631C67.9128 593.631 61.9 587.996 61.9 580.391H57.9ZM75.26 597.631C84.7128 597.631 92.62 590.307 92.62 580.391H88.62C88.62 587.996 82.6072 593.631 75.26 593.631V597.631ZM92.62 580.391C92.62 570.455 84.6916 563.271 75.26 563.271V567.271C82.6284 567.271 88.62 572.807 88.62 580.391H92.62ZM75.26 563.271C65.8284 563.271 57.9 570.455 57.9 580.391H61.9C61.9 572.807 67.8916 567.271 75.26 567.271V563.271Z" fill="white"/>
</svg>
